<svg width="525" height="141" viewBox="0 0 525 141" fill="none" xmlns="http://www.w3.org/2000/svg">
<path fill-rule="evenodd" clip-rule="evenodd" d="M12.0279 111.883V23.8828C8.13734 28.6713 5.03028 39.9984 2.99997 45.6692C-2.96596 62.538 0.892221 81.3828 6.55884 98.3828C7.55884 101.383 11.1693 110.553 12.0279 111.883ZM24.1256 11.3249C30.2323 6.61386 37.2257 3.1507 44.5332 1.50003C61.6363 -2.28637 80.5416 3.88795 97.1635 14.9404L62.5 48.7133L24.1256 11.3249ZM113.283 111.883V27.5C125 42.5 129 57.1632 129 67.5C129 80.2234 121.764 105.319 113.283 111.883Z" fill="#C6B4F9"/>
<path d="M28.5 129.175C34.6067 133.886 41.6925 137.849 49 139.5C66.103 143.286 78.3781 138.372 95 127.32L62.8098 96.5L28.5 129.175Z" fill="#C6B4F9"/>
<path fill-rule="evenodd" clip-rule="evenodd" d="M103.356 21V89.6562L86.4892 73.6827L86.4892 73.5778L86.4892 60.6857L86.4892 59.4951L62.6778 82.7722V60.6857L103.356 21ZM69.7695 89.6562L103.356 122V98.8875L81.5537 78.1854L69.7695 89.6562Z" fill="#614385"/>
<path fill-rule="evenodd" clip-rule="evenodd" d="M22 122V21L62.6778 60.6857V82.7722L38.8664 59.4951L38.8664 60.6857L38.8664 73.5778L38.8664 105.729L22 122Z" fill="#894E8E"/>
<path d="M176.393 97.525V102.034H181.694V103.456H176.393V109H174.647V96.103H182.594V97.525H176.393ZM190.738 102.349C191.242 102.349 191.686 102.289 192.07 102.169C192.46 102.043 192.784 101.869 193.042 101.647C193.306 101.419 193.504 101.149 193.636 100.837C193.768 100.525 193.834 100.18 193.834 99.802C193.834 99.034 193.582 98.455 193.078 98.065C192.574 97.675 191.818 97.48 190.81 97.48H188.902V102.349H190.738ZM196.696 109H195.148C194.83 109 194.596 108.877 194.446 108.631L191.098 104.023C190.996 103.879 190.885 103.777 190.765 103.717C190.651 103.651 190.471 103.618 190.225 103.618H188.902V109H187.165V96.103H190.81C191.626 96.103 192.331 96.187 192.925 96.355C193.519 96.517 194.008 96.754 194.392 97.066C194.782 97.378 195.07 97.756 195.256 98.2C195.442 98.638 195.535 99.13 195.535 99.676C195.535 100.132 195.463 100.558 195.319 100.954C195.175 101.35 194.965 101.707 194.689 102.025C194.419 102.337 194.086 102.604 193.69 102.826C193.3 103.048 192.856 103.216 192.358 103.33C192.58 103.456 192.772 103.639 192.934 103.879L196.696 109ZM212.583 102.556C212.583 103.522 212.43 104.41 212.124 105.22C211.818 106.024 211.386 106.717 210.828 107.299C210.27 107.881 209.598 108.334 208.812 108.658C208.032 108.976 207.168 109.135 206.22 109.135C205.272 109.135 204.408 108.976 203.628 108.658C202.848 108.334 202.179 107.881 201.621 107.299C201.063 106.717 200.631 106.024 200.325 105.22C200.019 104.41 199.866 103.522 199.866 102.556C199.866 101.59 200.019 100.705 200.325 99.901C200.631 99.091 201.063 98.395 201.621 97.813C202.179 97.225 202.848 96.769 203.628 96.445C204.408 96.121 205.272 95.959 206.22 95.959C207.168 95.959 208.032 96.121 208.812 96.445C209.598 96.769 210.27 97.225 210.828 97.813C211.386 98.395 211.818 99.091 212.124 99.901C212.43 100.705 212.583 101.59 212.583 102.556ZM210.792 102.556C210.792 101.764 210.684 101.053 210.468 100.423C210.252 99.793 209.946 99.262 209.55 98.83C209.154 98.392 208.674 98.056 208.11 97.822C207.546 97.588 206.916 97.471 206.22 97.471C205.53 97.471 204.903 97.588 204.339 97.822C203.775 98.056 203.292 98.392 202.89 98.83C202.494 99.262 202.188 99.793 201.972 100.423C201.756 101.053 201.648 101.764 201.648 102.556C201.648 103.348 201.756 104.059 201.972 104.689C202.188 105.313 202.494 105.844 202.89 106.282C203.292 106.714 203.775 107.047 204.339 107.281C204.903 107.509 205.53 107.623 206.22 107.623C206.916 107.623 207.546 107.509 208.11 107.281C208.674 107.047 209.154 106.714 209.55 106.282C209.946 105.844 210.252 105.313 210.468 104.689C210.684 104.059 210.792 103.348 210.792 102.556ZM227.87 96.103V109H226.997C226.859 109 226.742 108.976 226.646 108.928C226.556 108.88 226.466 108.799 226.376 108.685L218.915 98.965C218.927 99.115 218.936 99.262 218.942 99.406C218.948 99.55 218.951 99.685 218.951 99.811V109H217.421V96.103H218.321C218.399 96.103 218.465 96.109 218.519 96.121C218.573 96.127 218.621 96.142 218.663 96.166C218.705 96.184 218.747 96.214 218.789 96.256C218.831 96.292 218.876 96.34 218.924 96.4L226.385 106.111C226.373 105.955 226.361 105.805 226.349 105.661C226.343 105.511 226.34 105.37 226.34 105.238V96.103H227.87ZM242.228 97.57H238.052V109H236.315V97.57H232.13V96.103H242.228V97.57ZM254.438 107.578L254.429 109H246.482V96.103H254.429V97.525H248.228V101.809H253.25V103.177H248.228V107.578H254.438ZM269.659 96.103V109H268.786C268.648 109 268.531 108.976 268.435 108.928C268.345 108.88 268.255 108.799 268.165 108.685L260.704 98.965C260.716 99.115 260.725 99.262 260.731 99.406C260.737 99.55 260.74 99.685 260.74 99.811V109H259.21V96.103H260.11C260.188 96.103 260.254 96.109 260.308 96.121C260.362 96.127 260.41 96.142 260.452 96.166C260.494 96.184 260.536 96.214 260.578 96.256C260.62 96.292 260.665 96.34 260.713 96.4L268.174 106.111C268.162 105.955 268.15 105.805 268.138 105.661C268.132 105.511 268.129 105.37 268.129 105.238V96.103H269.659ZM286.475 102.556C286.475 103.522 286.322 104.401 286.016 105.193C285.71 105.985 285.278 106.663 284.72 107.227C284.162 107.791 283.49 108.229 282.704 108.541C281.924 108.847 281.06 109 280.112 109H275.297V96.103H280.112C281.06 96.103 281.924 96.259 282.704 96.571C283.49 96.877 284.162 97.315 284.72 97.885C285.278 98.449 285.71 99.127 286.016 99.919C286.322 100.711 286.475 101.59 286.475 102.556ZM284.684 102.556C284.684 101.764 284.576 101.056 284.36 100.432C284.144 99.808 283.838 99.28 283.442 98.848C283.046 98.416 282.566 98.086 282.002 97.858C281.438 97.63 280.808 97.516 280.112 97.516H277.043V107.587H280.112C280.808 107.587 281.438 107.473 282.002 107.245C282.566 107.017 283.046 106.69 283.442 106.264C283.838 105.832 284.144 105.304 284.36 104.68C284.576 104.056 284.684 103.348 284.684 102.556ZM304.872 98.119C304.818 98.209 304.758 98.278 304.692 98.326C304.632 98.368 304.557 98.389 304.467 98.389C304.365 98.389 304.245 98.338 304.107 98.236C303.969 98.134 303.795 98.023 303.585 97.903C303.381 97.777 303.132 97.663 302.838 97.561C302.55 97.459 302.199 97.408 301.785 97.408C301.395 97.408 301.05 97.462 300.75 97.57C300.456 97.672 300.207 97.813 300.003 97.993C299.805 98.173 299.655 98.386 299.553 98.632C299.451 98.872 299.4 99.133 299.4 99.415C299.4 99.775 299.487 100.075 299.661 100.315C299.841 100.549 300.075 100.75 300.363 100.918C300.657 101.086 300.987 101.233 301.353 101.359C301.725 101.479 302.103 101.605 302.487 101.737C302.877 101.869 303.255 102.019 303.621 102.187C303.993 102.349 304.323 102.556 304.611 102.808C304.905 103.06 305.139 103.369 305.313 103.735C305.493 104.101 305.583 104.551 305.583 105.085C305.583 105.649 305.487 106.18 305.295 106.678C305.103 107.17 304.821 107.599 304.449 107.965C304.083 108.331 303.63 108.619 303.09 108.829C302.556 109.039 301.947 109.144 301.263 109.144C300.423 109.144 299.661 108.994 298.977 108.694C298.293 108.388 297.708 107.977 297.222 107.461L297.726 106.633C297.774 106.567 297.831 106.513 297.897 106.471C297.969 106.423 298.047 106.399 298.131 106.399C298.209 106.399 298.296 106.432 298.392 106.498C298.494 106.558 298.608 106.636 298.734 106.732C298.86 106.828 299.004 106.933 299.166 107.047C299.328 107.161 299.511 107.266 299.715 107.362C299.925 107.458 300.162 107.539 300.426 107.605C300.69 107.665 300.987 107.695 301.317 107.695C301.731 107.695 302.1 107.638 302.424 107.524C302.748 107.41 303.021 107.251 303.243 107.047C303.471 106.837 303.645 106.588 303.765 106.3C303.885 106.012 303.945 105.691 303.945 105.337C303.945 104.947 303.855 104.629 303.675 104.383C303.501 104.131 303.27 103.921 302.982 103.753C302.694 103.585 302.364 103.444 301.992 103.33C301.62 103.21 301.242 103.09 300.858 102.97C300.474 102.844 300.096 102.7 299.724 102.538C299.352 102.376 299.022 102.166 298.734 101.908C298.446 101.65 298.212 101.329 298.032 100.945C297.858 100.555 297.771 100.075 297.771 99.505C297.771 99.049 297.858 98.608 298.032 98.182C298.212 97.756 298.47 97.378 298.806 97.048C299.148 96.718 299.565 96.454 300.057 96.256C300.555 96.058 301.125 95.959 301.767 95.959C302.487 95.959 303.141 96.073 303.729 96.301C304.323 96.529 304.845 96.859 305.295 97.291L304.872 98.119ZM322.305 102.556C322.305 103.522 322.152 104.41 321.846 105.22C321.54 106.024 321.108 106.717 320.55 107.299C319.992 107.881 319.32 108.334 318.534 108.658C317.754 108.976 316.89 109.135 315.942 109.135C314.994 109.135 314.13 108.976 313.35 108.658C312.57 108.334 311.901 107.881 311.343 107.299C310.785 106.717 310.353 106.024 310.047 105.22C309.741 104.41 309.588 103.522 309.588 102.556C309.588 101.59 309.741 100.705 310.047 99.901C310.353 99.091 310.785 98.395 311.343 97.813C311.901 97.225 312.57 96.769 313.35 96.445C314.13 96.121 314.994 95.959 315.942 95.959C316.89 95.959 317.754 96.121 318.534 96.445C319.32 96.769 319.992 97.225 320.55 97.813C321.108 98.395 321.54 99.091 321.846 99.901C322.152 100.705 322.305 101.59 322.305 102.556ZM320.514 102.556C320.514 101.764 320.406 101.053 320.19 100.423C319.974 99.793 319.668 99.262 319.272 98.83C318.876 98.392 318.396 98.056 317.832 97.822C317.268 97.588 316.638 97.471 315.942 97.471C315.252 97.471 314.625 97.588 314.061 97.822C313.497 98.056 313.014 98.392 312.612 98.83C312.216 99.262 311.91 99.793 311.694 100.423C311.478 101.053 311.37 101.764 311.37 102.556C311.37 103.348 311.478 104.059 311.694 104.689C311.91 105.313 312.216 105.844 312.612 106.282C313.014 106.714 313.497 107.047 314.061 107.281C314.625 107.509 315.252 107.623 315.942 107.623C316.638 107.623 317.268 107.509 317.832 107.281C318.396 107.047 318.876 106.714 319.272 106.282C319.668 105.844 319.974 105.313 320.19 104.689C320.406 104.059 320.514 103.348 320.514 102.556ZM328.889 97.525V102.034H334.19V103.456H328.889V109H327.143V96.103H335.09V97.525H328.889ZM348.382 97.57H344.206V109H342.469V97.57H338.284V96.103H348.382V97.57ZM369.348 96.103L365.325 109H363.759L360.492 99.163C360.462 99.067 360.432 98.965 360.402 98.857C360.378 98.749 360.351 98.635 360.321 98.515C360.291 98.635 360.261 98.749 360.231 98.857C360.201 98.965 360.171 99.067 360.141 99.163L356.856 109H355.29L351.267 96.103H352.716C352.872 96.103 353.001 96.142 353.103 96.22C353.211 96.298 353.28 96.397 353.31 96.517L355.974 105.481C356.016 105.643 356.055 105.817 356.091 106.003C356.133 106.189 356.172 106.387 356.208 106.597C356.25 106.387 356.292 106.189 356.334 106.003C356.382 105.811 356.433 105.637 356.487 105.481L359.52 96.517C359.556 96.415 359.625 96.322 359.727 96.238C359.835 96.148 359.964 96.103 360.114 96.103H360.618C360.774 96.103 360.9 96.142 360.996 96.22C361.092 96.298 361.164 96.397 361.212 96.517L364.236 105.481C364.29 105.637 364.338 105.805 364.38 105.985C364.428 106.165 364.473 106.354 364.515 106.552C364.545 106.354 364.578 106.165 364.614 105.985C364.65 105.805 364.689 105.637 364.731 105.481L367.404 96.517C367.434 96.409 367.5 96.313 367.602 96.229C367.71 96.145 367.839 96.103 367.989 96.103H369.348ZM379.684 104.212L377.659 98.965C377.599 98.809 377.536 98.629 377.47 98.425C377.404 98.215 377.341 97.993 377.281 97.759C377.155 98.245 377.026 98.65 376.894 98.974L374.869 104.212H379.684ZM383.32 109H381.97C381.814 109 381.688 108.961 381.592 108.883C381.496 108.805 381.424 108.706 381.376 108.586L380.17 105.472H374.383L373.177 108.586C373.141 108.694 373.072 108.79 372.97 108.874C372.868 108.958 372.742 109 372.592 109H371.242L376.399 96.103H378.163L383.32 109ZM390.929 102.349C391.433 102.349 391.877 102.289 392.261 102.169C392.651 102.043 392.975 101.869 393.233 101.647C393.497 101.419 393.695 101.149 393.827 100.837C393.959 100.525 394.025 100.18 394.025 99.802C394.025 99.034 393.773 98.455 393.269 98.065C392.765 97.675 392.009 97.48 391.001 97.48H389.093V102.349H390.929ZM396.887 109H395.339C395.021 109 394.787 108.877 394.637 108.631L391.289 104.023C391.187 103.879 391.076 103.777 390.956 103.717C390.842 103.651 390.662 103.618 390.416 103.618H389.093V109H387.356V96.103H391.001C391.817 96.103 392.522 96.187 393.116 96.355C393.71 96.517 394.199 96.754 394.583 97.066C394.973 97.378 395.261 97.756 395.447 98.2C395.633 98.638 395.726 99.13 395.726 99.676C395.726 100.132 395.654 100.558 395.51 100.954C395.366 101.35 395.156 101.707 394.88 102.025C394.61 102.337 394.277 102.604 393.881 102.826C393.491 103.048 393.047 103.216 392.549 103.33C392.771 103.456 392.963 103.639 393.125 103.879L396.887 109ZM408.938 107.578L408.929 109H400.982V96.103H408.929V97.525H402.728V101.809H407.75V103.177H402.728V107.578H408.938ZM428.612 107.578L428.603 109H420.656V96.103H428.603V97.525H422.402V101.809H427.424V103.177H422.402V107.578H428.612ZM443.833 96.103V109H442.96C442.822 109 442.705 108.976 442.609 108.928C442.519 108.88 442.429 108.799 442.339 108.685L434.878 98.965C434.89 99.115 434.899 99.262 434.905 99.406C434.911 99.55 434.914 99.685 434.914 99.811V109H433.384V96.103H434.284C434.362 96.103 434.428 96.109 434.482 96.121C434.536 96.127 434.584 96.142 434.626 96.166C434.668 96.184 434.71 96.214 434.752 96.256C434.794 96.292 434.839 96.34 434.887 96.4L442.348 106.111C442.336 105.955 442.324 105.805 442.312 105.661C442.306 105.511 442.303 105.37 442.303 105.238V96.103H443.833ZM459.946 102.799V107.749C459.298 108.217 458.605 108.568 457.867 108.802C457.135 109.03 456.331 109.144 455.455 109.144C454.417 109.144 453.481 108.985 452.647 108.667C451.813 108.343 451.099 107.893 450.505 107.317C449.917 106.735 449.464 106.039 449.146 105.229C448.828 104.419 448.669 103.528 448.669 102.556C448.669 101.572 448.822 100.675 449.128 99.865C449.44 99.055 449.881 98.362 450.451 97.786C451.021 97.204 451.714 96.754 452.53 96.436C453.346 96.118 454.258 95.959 455.266 95.959C455.776 95.959 456.25 95.998 456.688 96.076C457.126 96.148 457.531 96.256 457.903 96.4C458.275 96.538 458.62 96.709 458.938 96.913C459.256 97.111 459.553 97.336 459.829 97.588L459.334 98.38C459.256 98.5 459.154 98.578 459.028 98.614C458.908 98.644 458.773 98.614 458.623 98.524C458.479 98.44 458.314 98.338 458.128 98.218C457.942 98.098 457.714 97.984 457.444 97.876C457.18 97.762 456.865 97.666 456.499 97.588C456.139 97.51 455.71 97.471 455.212 97.471C454.486 97.471 453.829 97.591 453.241 97.831C452.653 98.065 452.152 98.404 451.738 98.848C451.324 99.286 451.006 99.82 450.784 100.45C450.562 101.074 450.451 101.776 450.451 102.556C450.451 103.366 450.565 104.092 450.793 104.734C451.027 105.37 451.357 105.913 451.783 106.363C452.215 106.807 452.737 107.146 453.349 107.38C453.961 107.614 454.648 107.731 455.41 107.731C456.01 107.731 456.541 107.665 457.003 107.533C457.471 107.395 457.927 107.206 458.371 106.966V104.131H456.364C456.25 104.131 456.157 104.098 456.085 104.032C456.019 103.966 455.986 103.885 455.986 103.789V102.799H459.946ZM466.705 109H464.959V96.103H466.705V109ZM482.793 96.103V109H481.92C481.782 109 481.665 108.976 481.569 108.928C481.479 108.88 481.389 108.799 481.299 108.685L473.838 98.965C473.85 99.115 473.859 99.262 473.865 99.406C473.871 99.55 473.874 99.685 473.874 99.811V109H472.344V96.103H473.244C473.322 96.103 473.388 96.109 473.442 96.121C473.496 96.127 473.544 96.142 473.586 96.166C473.628 96.184 473.67 96.214 473.712 96.256C473.754 96.292 473.799 96.34 473.847 96.4L481.308 106.111C481.296 105.955 481.284 105.805 481.272 105.661C481.266 105.511 481.263 105.37 481.263 105.238V96.103H482.793ZM496.386 107.578L496.377 109H488.43V96.103H496.377V97.525H490.176V101.809H495.198V103.177H490.176V107.578H496.386ZM509.115 107.578L509.106 109H501.159V96.103H509.106V97.525H502.905V101.809H507.927V103.177H502.905V107.578H509.115ZM517.46 102.349C517.964 102.349 518.408 102.289 518.792 102.169C519.182 102.043 519.506 101.869 519.764 101.647C520.028 101.419 520.226 101.149 520.358 100.837C520.49 100.525 520.556 100.18 520.556 99.802C520.556 99.034 520.304 98.455 519.8 98.065C519.296 97.675 518.54 97.48 517.532 97.48H515.624V102.349H517.46ZM523.418 109H521.87C521.552 109 521.318 108.877 521.168 108.631L517.82 104.023C517.718 103.879 517.607 103.777 517.487 103.717C517.373 103.651 517.193 103.618 516.947 103.618H515.624V109H513.887V96.103H517.532C518.348 96.103 519.053 96.187 519.647 96.355C520.241 96.517 520.73 96.754 521.114 97.066C521.504 97.378 521.792 97.756 521.978 98.2C522.164 98.638 522.257 99.13 522.257 99.676C522.257 100.132 522.185 100.558 522.041 100.954C521.897 101.35 521.687 101.707 521.411 102.025C521.141 102.337 520.808 102.604 520.412 102.826C520.022 103.048 519.578 103.216 519.08 103.33C519.302 103.456 519.494 103.639 519.656 103.879L523.418 109Z" fill="#614385"/>
<path d="M175.48 82V37.2H185.912L204.472 67.664H198.968L217.016 37.2H227.448L227.576 82H215.928L215.8 54.928H217.784L204.28 77.584H198.648L184.76 54.928H187.192V82H175.48ZM246.335 82.896C243.049 82.896 240.063 82.3413 237.375 81.232C234.729 80.08 232.532 78.4373 230.782 76.304L237.695 68.112C238.889 69.648 240.127 70.8213 241.407 71.632C242.687 72.4 244.031 72.784 245.439 72.784C249.193 72.784 251.071 70.608 251.071 66.256V46.992H235.583V37.2H263.615V65.488C263.615 71.3333 262.143 75.7067 259.199 78.608C256.255 81.4667 251.967 82.896 246.335 82.896ZM290.793 82V37.2H301.225L319.785 67.664H314.281L332.329 37.2H342.761L342.889 82H331.241L331.113 54.928H333.097L319.593 77.584H313.961L300.073 54.928H302.505V82H290.793ZM363.503 54.544H384.303V64.016H363.503V54.544ZM364.399 72.208H387.823V82H351.855V37.2H386.991V46.992H364.399V72.208ZM405.808 82V63.056L408.752 70.672L388.72 37.2H402.096L416.56 61.456H408.816L423.344 37.2H435.632L415.664 70.672L418.48 63.056V82H405.808ZM450.316 54.544H471.116V64.016H450.316V54.544ZM451.212 72.208H474.636V82H438.668V37.2H473.804V46.992H451.212V72.208ZM481.668 82V37.2H502.148C506.244 37.2 509.764 37.8613 512.708 39.184C515.694 40.5067 517.998 42.4267 519.62 44.944C521.241 47.4187 522.052 50.3627 522.052 53.776C522.052 57.1467 521.241 60.0693 519.62 62.544C517.998 64.976 515.694 66.8533 512.708 68.176C509.764 69.456 506.244 70.096 502.148 70.096H488.708L494.34 64.784V82H481.668ZM509.38 82L498.244 65.68H511.748L522.948 82H509.38ZM494.34 66.128L488.708 60.304H501.38C504.025 60.304 505.988 59.728 507.268 58.576C508.59 57.424 509.252 55.824 509.252 53.776C509.252 51.6853 508.59 50.064 507.268 48.912C505.988 47.76 504.025 47.184 501.38 47.184H488.708L494.34 41.36V66.128Z" fill="#614385"/>
</svg>
