<svg width="525" height="141" viewBox="0 0 525 141" fill="none" xmlns="http://www.w3.org/2000/svg">
<path fill-rule="evenodd" clip-rule="evenodd" d="M12.028 111.883V23.8828C8.1374 28.6713 5.03035 39.9984 3.00004 45.6692C-2.9659 62.538 0.892282 81.3828 6.5589 98.3828C7.5589 101.383 11.1694 110.553 12.028 111.883ZM24.1256 11.3249C30.2323 6.61386 37.2258 3.1507 44.5333 1.50003C61.6363 -2.28637 80.5417 3.88795 97.1636 14.9404L62.5001 48.7133L24.1256 11.3249ZM113.283 111.883V27.5C125 42.5 129 57.1632 129 67.5C129 80.2234 121.764 105.319 113.283 111.883Z" fill="#5B2C76"/>
<path d="M28.5001 129.175C34.6068 133.886 41.6925 137.849 49.0001 139.5C66.1031 143.286 78.3782 138.372 95.0001 127.32L62.8099 96.5L28.5001 129.175Z" fill="#5B2C76"/>
<path fill-rule="evenodd" clip-rule="evenodd" d="M103.356 21V89.6562L86.4891 73.6827L86.4891 73.5778L86.4891 60.6857L86.4891 59.4951L62.6777 82.7722V60.6857L103.356 21ZM69.7694 89.6562L103.356 122V98.8875L81.5536 78.1854L69.7694 89.6562Z" fill="#CDBFD9"/>
<path fill-rule="evenodd" clip-rule="evenodd" d="M22 122V21L62.6778 60.6857V82.7722L38.8664 59.4951L38.8664 60.6857L38.8664 73.5778L38.8664 105.729L22 122Z" fill="#894E8E"/>
<path d="M176.393 97.525V102.034H181.694V103.456H176.393V109H174.647V96.103H182.594V97.525H176.393ZM190.738 102.349C191.242 102.349 191.686 102.289 192.07 102.169C192.46 102.043 192.784 101.869 193.042 101.647C193.306 101.419 193.504 101.149 193.636 100.837C193.768 100.525 193.834 100.18 193.834 99.802C193.834 99.034 193.582 98.455 193.078 98.065C192.574 97.675 191.818 97.48 190.81 97.48H188.902V102.349H190.738ZM196.696 109H195.148C194.83 109 194.596 108.877 194.446 108.631L191.098 104.023C190.996 103.879 190.885 103.777 190.765 103.717C190.651 103.651 190.471 103.618 190.225 103.618H188.902V109H187.165V96.103H190.81C191.626 96.103 192.331 96.187 192.925 96.355C193.519 96.517 194.008 96.754 194.392 97.066C194.782 97.378 195.07 97.756 195.256 98.2C195.442 98.638 195.535 99.13 195.535 99.676C195.535 100.132 195.463 100.558 195.319 100.954C195.175 101.35 194.965 101.707 194.689 102.025C194.419 102.337 194.086 102.604 193.69 102.826C193.3 103.048 192.856 103.216 192.358 103.33C192.58 103.456 192.772 103.639 192.934 103.879L196.696 109ZM212.583 102.556C212.583 103.522 212.43 104.41 212.124 105.22C211.818 106.024 211.386 106.717 210.828 107.299C210.27 107.881 209.598 108.334 208.812 108.658C208.032 108.976 207.168 109.135 206.22 109.135C205.272 109.135 204.408 108.976 203.628 108.658C202.848 108.334 202.179 107.881 201.621 107.299C201.063 106.717 200.631 106.024 200.325 105.22C200.019 104.41 199.866 103.522 199.866 102.556C199.866 101.59 200.019 100.705 200.325 99.901C200.631 99.091 201.063 98.395 201.621 97.813C202.179 97.225 202.848 96.769 203.628 96.445C204.408 96.121 205.272 95.959 206.22 95.959C207.168 95.959 208.032 96.121 208.812 96.445C209.598 96.769 210.27 97.225 210.828 97.813C211.386 98.395 211.818 99.091 212.124 99.901C212.43 100.705 212.583 101.59 212.583 102.556ZM210.792 102.556C210.792 101.764 210.684 101.053 210.468 100.423C210.252 99.793 209.946 99.262 209.55 98.83C209.154 98.392 208.674 98.056 208.11 97.822C207.546 97.588 206.916 97.471 206.22 97.471C205.53 97.471 204.903 97.588 204.339 97.822C203.775 98.056 203.292 98.392 202.89 98.83C202.494 99.262 202.188 99.793 201.972 100.423C201.756 101.053 201.648 101.764 201.648 102.556C201.648 103.348 201.756 104.059 201.972 104.689C202.188 105.313 202.494 105.844 202.89 106.282C203.292 106.714 203.775 107.047 204.339 107.281C204.903 107.509 205.53 107.623 206.22 107.623C206.916 107.623 207.546 107.509 208.11 107.281C208.674 107.047 209.154 106.714 209.55 106.282C209.946 105.844 210.252 105.313 210.468 104.689C210.684 104.059 210.792 103.348 210.792 102.556ZM227.87 96.103V109H226.997C226.859 109 226.742 108.976 226.646 108.928C226.556 108.88 226.466 108.799 226.376 108.685L218.915 98.965C218.927 99.115 218.936 99.262 218.942 99.406C218.948 99.55 218.951 99.685 218.951 99.811V109H217.421V96.103H218.321C218.399 96.103 218.465 96.109 218.519 96.121C218.573 96.127 218.621 96.142 218.663 96.166C218.705 96.184 218.747 96.214 218.789 96.256C218.831 96.292 218.876 96.34 218.924 96.4L226.385 106.111C226.373 105.955 226.361 105.805 226.349 105.661C226.343 105.511 226.34 105.37 226.34 105.238V96.103H227.87ZM242.228 97.57H238.052V109H236.315V97.57H232.13V96.103H242.228V97.57ZM254.438 107.578L254.429 109H246.482V96.103H254.429V97.525H248.228V101.809H253.25V103.177H248.228V107.578H254.438ZM269.66 96.103V109H268.787C268.649 109 268.532 108.976 268.436 108.928C268.346 108.88 268.256 108.799 268.166 108.685L260.705 98.965C260.717 99.115 260.726 99.262 260.732 99.406C260.738 99.55 260.741 99.685 260.741 99.811V109H259.211V96.103H260.111C260.189 96.103 260.255 96.109 260.309 96.121C260.363 96.127 260.411 96.142 260.453 96.166C260.495 96.184 260.537 96.214 260.579 96.256C260.621 96.292 260.666 96.34 260.714 96.4L268.175 106.111C268.163 105.955 268.151 105.805 268.139 105.661C268.133 105.511 268.13 105.37 268.13 105.238V96.103H269.66ZM286.475 102.556C286.475 103.522 286.322 104.401 286.016 105.193C285.71 105.985 285.278 106.663 284.72 107.227C284.162 107.791 283.49 108.229 282.704 108.541C281.924 108.847 281.06 109 280.112 109H275.297V96.103H280.112C281.06 96.103 281.924 96.259 282.704 96.571C283.49 96.877 284.162 97.315 284.72 97.885C285.278 98.449 285.71 99.127 286.016 99.919C286.322 100.711 286.475 101.59 286.475 102.556ZM284.684 102.556C284.684 101.764 284.576 101.056 284.36 100.432C284.144 99.808 283.838 99.28 283.442 98.848C283.046 98.416 282.566 98.086 282.002 97.858C281.438 97.63 280.808 97.516 280.112 97.516H277.043V107.587H280.112C280.808 107.587 281.438 107.473 282.002 107.245C282.566 107.017 283.046 106.69 283.442 106.264C283.838 105.832 284.144 105.304 284.36 104.68C284.576 104.056 284.684 103.348 284.684 102.556Z" fill="#E2D6E3" fill-opacity="0.67"/>
<path d="M304.872 98.119C304.818 98.209 304.758 98.278 304.692 98.326C304.632 98.368 304.557 98.389 304.467 98.389C304.365 98.389 304.245 98.338 304.107 98.236C303.969 98.134 303.795 98.023 303.585 97.903C303.381 97.777 303.132 97.663 302.838 97.561C302.55 97.459 302.199 97.408 301.785 97.408C301.395 97.408 301.05 97.462 300.75 97.57C300.456 97.672 300.207 97.813 300.003 97.993C299.805 98.173 299.655 98.386 299.553 98.632C299.451 98.872 299.4 99.133 299.4 99.415C299.4 99.775 299.487 100.075 299.661 100.315C299.841 100.549 300.075 100.75 300.363 100.918C300.657 101.086 300.987 101.233 301.353 101.359C301.725 101.479 302.103 101.605 302.487 101.737C302.877 101.869 303.255 102.019 303.621 102.187C303.993 102.349 304.323 102.556 304.611 102.808C304.905 103.06 305.139 103.369 305.313 103.735C305.493 104.101 305.583 104.551 305.583 105.085C305.583 105.649 305.487 106.18 305.295 106.678C305.103 107.17 304.821 107.599 304.449 107.965C304.083 108.331 303.63 108.619 303.09 108.829C302.556 109.039 301.947 109.144 301.263 109.144C300.423 109.144 299.661 108.994 298.977 108.694C298.293 108.388 297.708 107.977 297.222 107.461L297.726 106.633C297.774 106.567 297.831 106.513 297.897 106.471C297.969 106.423 298.047 106.399 298.131 106.399C298.209 106.399 298.296 106.432 298.392 106.498C298.494 106.558 298.608 106.636 298.734 106.732C298.86 106.828 299.004 106.933 299.166 107.047C299.328 107.161 299.511 107.266 299.715 107.362C299.925 107.458 300.162 107.539 300.426 107.605C300.69 107.665 300.987 107.695 301.317 107.695C301.731 107.695 302.1 107.638 302.424 107.524C302.748 107.41 303.021 107.251 303.243 107.047C303.471 106.837 303.645 106.588 303.765 106.3C303.885 106.012 303.945 105.691 303.945 105.337C303.945 104.947 303.855 104.629 303.675 104.383C303.501 104.131 303.27 103.921 302.982 103.753C302.694 103.585 302.364 103.444 301.992 103.33C301.62 103.21 301.242 103.09 300.858 102.97C300.474 102.844 300.096 102.7 299.724 102.538C299.352 102.376 299.022 102.166 298.734 101.908C298.446 101.65 298.212 101.329 298.032 100.945C297.858 100.555 297.771 100.075 297.771 99.505C297.771 99.049 297.858 98.608 298.032 98.182C298.212 97.756 298.47 97.378 298.806 97.048C299.148 96.718 299.565 96.454 300.057 96.256C300.555 96.058 301.125 95.959 301.767 95.959C302.487 95.959 303.141 96.073 303.729 96.301C304.323 96.529 304.845 96.859 305.295 97.291L304.872 98.119ZM322.305 102.556C322.305 103.522 322.152 104.41 321.846 105.22C321.54 106.024 321.108 106.717 320.55 107.299C319.992 107.881 319.32 108.334 318.534 108.658C317.754 108.976 316.89 109.135 315.942 109.135C314.994 109.135 314.13 108.976 313.35 108.658C312.57 108.334 311.901 107.881 311.343 107.299C310.785 106.717 310.353 106.024 310.047 105.22C309.741 104.41 309.588 103.522 309.588 102.556C309.588 101.59 309.741 100.705 310.047 99.901C310.353 99.091 310.785 98.395 311.343 97.813C311.901 97.225 312.57 96.769 313.35 96.445C314.13 96.121 314.994 95.959 315.942 95.959C316.89 95.959 317.754 96.121 318.534 96.445C319.32 96.769 319.992 97.225 320.55 97.813C321.108 98.395 321.54 99.091 321.846 99.901C322.152 100.705 322.305 101.59 322.305 102.556ZM320.514 102.556C320.514 101.764 320.406 101.053 320.19 100.423C319.974 99.793 319.668 99.262 319.272 98.83C318.876 98.392 318.396 98.056 317.832 97.822C317.268 97.588 316.638 97.471 315.942 97.471C315.252 97.471 314.625 97.588 314.061 97.822C313.497 98.056 313.014 98.392 312.612 98.83C312.216 99.262 311.91 99.793 311.694 100.423C311.478 101.053 311.37 101.764 311.37 102.556C311.37 103.348 311.478 104.059 311.694 104.689C311.91 105.313 312.216 105.844 312.612 106.282C313.014 106.714 313.497 107.047 314.061 107.281C314.625 107.509 315.252 107.623 315.942 107.623C316.638 107.623 317.268 107.509 317.832 107.281C318.396 107.047 318.876 106.714 319.272 106.282C319.668 105.844 319.974 105.313 320.19 104.689C320.406 104.059 320.514 103.348 320.514 102.556ZM328.889 97.525V102.034H334.19V103.456H328.889V109H327.143V96.103H335.09V97.525H328.889ZM348.382 97.57H344.206V109H342.469V97.57H338.284V96.103H348.382V97.57ZM369.348 96.103L365.325 109H363.759L360.492 99.163C360.462 99.067 360.432 98.965 360.402 98.857C360.378 98.749 360.351 98.635 360.321 98.515C360.291 98.635 360.261 98.749 360.231 98.857C360.201 98.965 360.171 99.067 360.141 99.163L356.856 109H355.29L351.267 96.103H352.716C352.872 96.103 353.001 96.142 353.103 96.22C353.211 96.298 353.28 96.397 353.31 96.517L355.974 105.481C356.016 105.643 356.055 105.817 356.091 106.003C356.133 106.189 356.172 106.387 356.208 106.597C356.25 106.387 356.292 106.189 356.334 106.003C356.382 105.811 356.433 105.637 356.487 105.481L359.52 96.517C359.556 96.415 359.625 96.322 359.727 96.238C359.835 96.148 359.964 96.103 360.114 96.103H360.618C360.774 96.103 360.9 96.142 360.996 96.22C361.092 96.298 361.164 96.397 361.212 96.517L364.236 105.481C364.29 105.637 364.338 105.805 364.38 105.985C364.428 106.165 364.473 106.354 364.515 106.552C364.545 106.354 364.578 106.165 364.614 105.985C364.65 105.805 364.689 105.637 364.731 105.481L367.404 96.517C367.434 96.409 367.5 96.313 367.602 96.229C367.71 96.145 367.839 96.103 367.989 96.103H369.348ZM379.684 104.212L377.659 98.965C377.599 98.809 377.536 98.629 377.47 98.425C377.404 98.215 377.341 97.993 377.281 97.759C377.155 98.245 377.026 98.65 376.894 98.974L374.869 104.212H379.684ZM383.32 109H381.97C381.814 109 381.688 108.961 381.592 108.883C381.496 108.805 381.424 108.706 381.376 108.586L380.17 105.472H374.383L373.177 108.586C373.141 108.694 373.072 108.79 372.97 108.874C372.868 108.958 372.742 109 372.592 109H371.242L376.399 96.103H378.163L383.32 109ZM390.93 102.349C391.434 102.349 391.878 102.289 392.262 102.169C392.652 102.043 392.976 101.869 393.234 101.647C393.498 101.419 393.696 101.149 393.828 100.837C393.96 100.525 394.026 100.18 394.026 99.802C394.026 99.034 393.774 98.455 393.27 98.065C392.766 97.675 392.01 97.48 391.002 97.48H389.094V102.349H390.93ZM396.888 109H395.34C395.022 109 394.788 108.877 394.638 108.631L391.29 104.023C391.188 103.879 391.077 103.777 390.957 103.717C390.843 103.651 390.663 103.618 390.417 103.618H389.094V109H387.357V96.103H391.002C391.818 96.103 392.523 96.187 393.117 96.355C393.711 96.517 394.2 96.754 394.584 97.066C394.974 97.378 395.262 97.756 395.448 98.2C395.634 98.638 395.727 99.13 395.727 99.676C395.727 100.132 395.655 100.558 395.511 100.954C395.367 101.35 395.157 101.707 394.881 102.025C394.611 102.337 394.278 102.604 393.882 102.826C393.492 103.048 393.048 103.216 392.55 103.33C392.772 103.456 392.964 103.639 393.126 103.879L396.888 109ZM408.938 107.578L408.929 109H400.982V96.103H408.929V97.525H402.728V101.809H407.75V103.177H402.728V107.578H408.938ZM428.612 107.578L428.603 109H420.656V96.103H428.603V97.525H422.402V101.809H427.424V103.177H422.402V107.578H428.612ZM443.833 96.103V109H442.96C442.822 109 442.705 108.976 442.609 108.928C442.519 108.88 442.429 108.799 442.339 108.685L434.878 98.965C434.89 99.115 434.899 99.262 434.905 99.406C434.911 99.55 434.914 99.685 434.914 99.811V109H433.384V96.103H434.284C434.362 96.103 434.428 96.109 434.482 96.121C434.536 96.127 434.584 96.142 434.626 96.166C434.668 96.184 434.71 96.214 434.752 96.256C434.794 96.292 434.839 96.34 434.887 96.4L442.348 106.111C442.336 105.955 442.324 105.805 442.312 105.661C442.306 105.511 442.303 105.37 442.303 105.238V96.103H443.833ZM459.947 102.799V107.749C459.299 108.217 458.606 108.568 457.868 108.802C457.136 109.03 456.332 109.144 455.456 109.144C454.418 109.144 453.482 108.985 452.648 108.667C451.814 108.343 451.1 107.893 450.506 107.317C449.918 106.735 449.465 106.039 449.147 105.229C448.829 104.419 448.67 103.528 448.67 102.556C448.67 101.572 448.823 100.675 449.129 99.865C449.441 99.055 449.882 98.362 450.452 97.786C451.022 97.204 451.715 96.754 452.531 96.436C453.347 96.118 454.259 95.959 455.267 95.959C455.777 95.959 456.251 95.998 456.689 96.076C457.127 96.148 457.532 96.256 457.904 96.4C458.276 96.538 458.621 96.709 458.939 96.913C459.257 97.111 459.554 97.336 459.83 97.588L459.335 98.38C459.257 98.5 459.155 98.578 459.029 98.614C458.909 98.644 458.774 98.614 458.624 98.524C458.48 98.44 458.315 98.338 458.129 98.218C457.943 98.098 457.715 97.984 457.445 97.876C457.181 97.762 456.866 97.666 456.5 97.588C456.14 97.51 455.711 97.471 455.213 97.471C454.487 97.471 453.83 97.591 453.242 97.831C452.654 98.065 452.153 98.404 451.739 98.848C451.325 99.286 451.007 99.82 450.785 100.45C450.563 101.074 450.452 101.776 450.452 102.556C450.452 103.366 450.566 104.092 450.794 104.734C451.028 105.37 451.358 105.913 451.784 106.363C452.216 106.807 452.738 107.146 453.35 107.38C453.962 107.614 454.649 107.731 455.411 107.731C456.011 107.731 456.542 107.665 457.004 107.533C457.472 107.395 457.928 107.206 458.372 106.966V104.131H456.365C456.251 104.131 456.158 104.098 456.086 104.032C456.02 103.966 455.987 103.885 455.987 103.789V102.799H459.947ZM466.705 109H464.959V96.103H466.705V109ZM482.793 96.103V109H481.92C481.782 109 481.665 108.976 481.569 108.928C481.479 108.88 481.389 108.799 481.299 108.685L473.838 98.965C473.85 99.115 473.859 99.262 473.865 99.406C473.871 99.55 473.874 99.685 473.874 99.811V109H472.344V96.103H473.244C473.322 96.103 473.388 96.109 473.442 96.121C473.496 96.127 473.544 96.142 473.586 96.166C473.628 96.184 473.67 96.214 473.712 96.256C473.754 96.292 473.799 96.34 473.847 96.4L481.308 106.111C481.296 105.955 481.284 105.805 481.272 105.661C481.266 105.511 481.263 105.37 481.263 105.238V96.103H482.793ZM496.386 107.578L496.377 109H488.43V96.103H496.377V97.525H490.176V101.809H495.198V103.177H490.176V107.578H496.386ZM509.115 107.578L509.106 109H501.159V96.103H509.106V97.525H502.905V101.809H507.927V103.177H502.905V107.578H509.115ZM517.46 102.349C517.964 102.349 518.408 102.289 518.792 102.169C519.182 102.043 519.506 101.869 519.764 101.647C520.028 101.419 520.226 101.149 520.358 100.837C520.49 100.525 520.556 100.18 520.556 99.802C520.556 99.034 520.304 98.455 519.8 98.065C519.296 97.675 518.54 97.48 517.532 97.48H515.624V102.349H517.46ZM523.418 109H521.87C521.552 109 521.318 108.877 521.168 108.631L517.82 104.023C517.718 103.879 517.607 103.777 517.487 103.717C517.373 103.651 517.193 103.618 516.947 103.618H515.624V109H513.887V96.103H517.532C518.348 96.103 519.053 96.187 519.647 96.355C520.241 96.517 520.73 96.754 521.114 97.066C521.504 97.378 521.792 97.756 521.978 98.2C522.164 98.638 522.257 99.13 522.257 99.676C522.257 100.132 522.185 100.558 522.041 100.954C521.897 101.35 521.687 101.707 521.411 102.025C521.141 102.337 520.808 102.604 520.412 102.826C520.022 103.048 519.578 103.216 519.08 103.33C519.302 103.456 519.494 103.639 519.656 103.879L523.418 109Z" fill="#E2D6E3"/>
<path d="M168 106C268.407 98.3375 291.822 99.6146 290.978 101.211L168 106Z" fill="#E2D6E3" stroke="#E2D6E3"/>
<g filter="url(#filter0_d_733_4)">
<path d="M169.811 122.064C169.447 121.887 169.161 121.623 168.951 121.273C168.74 120.922 168.613 120.584 168.569 120.258C168.586 119.975 168.649 119.754 168.756 119.594C168.851 119.424 168.971 119.287 169.118 119.184C169.263 119.069 169.416 118.983 169.577 118.926C169.737 118.857 169.892 118.8 170.042 118.755L170.31 118.826C170.372 118.881 170.434 118.93 170.496 118.973C170.569 119.016 170.636 119.058 170.698 119.101C170.812 119.047 170.877 118.973 170.895 118.877C170.924 118.782 170.953 118.686 170.982 118.59C171.009 118.459 171.042 118.328 171.081 118.196C171.119 118.065 171.17 117.932 171.232 117.799C171.213 117.695 171.213 117.601 171.231 117.518C171.25 117.434 171.268 117.363 171.288 117.303C171.214 117.249 171.16 117.223 171.125 117.225C171.101 117.215 171.053 117.2 170.981 117.181C170.946 117.183 170.911 117.186 170.876 117.188C170.84 117.178 170.798 117.169 170.751 117.161C170.567 117.043 170.444 116.945 170.38 116.867C170.327 116.776 170.269 116.686 170.204 116.596C170.14 116.506 170.082 116.428 170.031 116.361C169.98 116.293 169.923 116.232 169.861 116.178L169.641 116.051L169.733 115.834C169.755 115.809 169.765 115.779 169.763 115.744C169.76 115.697 169.732 115.634 169.68 115.555C169.636 115.405 169.623 115.294 169.642 115.223L169.663 115.01C169.771 114.851 169.829 114.759 169.84 114.735L170.004 114.548C170.269 114.461 170.539 114.368 170.814 114.268C171.089 114.157 171.358 114.046 171.621 113.935C171.884 113.824 172.153 113.713 172.428 113.602C172.702 113.491 172.978 113.391 173.254 113.303C173.342 113.215 173.439 113.162 173.543 113.144C173.659 113.113 173.763 113.089 173.856 113.071C173.938 113.066 174.013 113.055 174.083 113.039C174.152 113.023 174.203 112.991 174.235 112.942C174.429 112.859 174.619 112.788 174.803 112.729C175.148 112.614 175.603 112.473 176.168 112.308C176.733 112.143 177.37 112.009 178.08 111.905L178.447 111.864C178.518 111.872 178.588 111.873 178.659 111.869C178.728 111.853 178.798 111.842 178.868 111.838C179.476 111.799 179.891 111.961 180.114 112.322C180.235 112.374 180.345 112.443 180.444 112.531C180.543 112.606 180.636 112.683 180.723 112.759C180.785 112.814 180.841 112.864 180.891 112.907C180.94 112.939 180.983 112.966 181.019 112.987L181.168 113.119C181.315 113.391 181.356 113.665 181.291 113.939C181.23 114.084 181.159 114.17 181.078 114.199C180.998 114.227 180.918 114.256 180.837 114.285L180.617 114.422C180.464 114.42 180.347 114.421 180.265 114.427C180.195 114.431 180.113 114.436 180.019 114.442C179.668 114.464 179.261 114.514 178.796 114.59C178.342 114.654 177.878 114.742 177.403 114.854C176.928 114.955 176.466 115.078 176.018 115.224C175.568 115.358 175.178 115.5 174.847 115.65C174.758 115.727 174.639 115.799 174.491 115.867C174.457 115.881 174.406 115.913 174.339 115.964C174.356 116.057 174.362 116.151 174.356 116.245C174.35 116.328 174.337 116.411 174.319 116.494C174.311 116.553 174.304 116.618 174.296 116.689C174.3 116.748 174.298 116.812 174.291 116.883C174.064 117.191 173.969 117.544 174.006 117.941L173.929 118.122C173.885 118.171 173.849 118.244 173.82 118.34C173.802 118.423 173.807 118.511 173.836 118.603L173.92 118.809C174.152 118.771 174.379 118.733 174.6 118.696C174.831 118.646 175.075 118.595 175.33 118.544C175.654 118.464 175.978 118.397 176.303 118.341C176.64 118.273 176.989 118.227 177.351 118.204L178.036 118.161L177.888 118.329L178.082 118.334L177.994 118.621C178.078 118.651 178.139 118.677 178.175 118.698C178.223 118.707 178.265 118.722 178.301 118.743L178.435 118.911C178.496 118.942 178.552 118.997 178.604 119.076C178.656 119.143 178.691 119.241 178.711 119.369L178.669 119.547L177.912 120.652L177.815 120.799L177.637 120.758C177.414 120.76 177.205 120.797 177.009 120.868C176.917 120.897 176.82 120.933 176.717 120.975C176.613 121.005 176.508 121.023 176.403 121.03C176.125 121.094 175.894 121.15 175.709 121.197C175.524 121.232 175.338 121.267 175.152 121.303C174.898 121.366 174.649 121.428 174.407 121.491C174.175 121.541 173.957 121.613 173.751 121.708C173.623 121.728 173.548 121.739 173.524 121.74C173.5 121.73 173.477 121.726 173.453 121.727C173.336 121.735 173.22 121.76 173.106 121.802C172.991 121.845 172.882 121.887 172.779 121.929C172.712 121.991 172.67 122.059 172.651 122.13C172.631 122.19 172.612 122.256 172.593 122.328C172.575 122.411 172.545 122.495 172.503 122.58C172.473 122.652 172.431 122.731 172.377 122.817L172.415 123.132C172.311 123.162 172.26 123.183 172.26 123.194C172.26 123.194 172.254 123.195 172.243 123.195C172.249 123.289 172.237 123.378 172.207 123.462C172.189 123.545 172.17 123.623 172.151 123.694C172.131 123.743 172.116 123.785 172.106 123.821C172.097 123.856 172.093 123.892 172.095 123.927C172.226 124.13 172.27 124.368 172.229 124.641C172.196 124.866 172.121 125.07 172.003 125.254C171.885 125.426 171.741 125.564 171.572 125.669C171.386 125.704 171.245 125.707 171.149 125.678C171.065 125.648 170.975 125.618 170.88 125.589C170.82 125.569 170.76 125.556 170.701 125.548C170.641 125.528 170.581 125.514 170.522 125.506L170.3 125.344C170.261 125.276 170.216 125.214 170.165 125.159C170.114 125.092 170.063 125.024 170.012 124.957C169.948 124.879 169.884 124.801 169.821 124.723C169.757 124.645 169.699 124.554 169.645 124.452C169.537 124.048 169.498 123.71 169.528 123.438C169.569 123.153 169.627 122.874 169.704 122.599C169.721 122.504 169.739 122.415 169.757 122.331C169.776 122.248 169.793 122.159 169.811 122.064ZM182.646 116.107C182.613 115.957 182.577 115.865 182.54 115.832C182.609 115.617 182.654 115.408 182.677 115.207C182.71 114.994 182.733 114.793 182.744 114.604C182.757 114.439 182.771 114.285 182.785 114.144C182.812 114.001 182.844 113.864 182.883 113.732C183.078 113.673 183.219 113.582 183.306 113.459C183.403 113.324 183.478 113.207 183.53 113.11C183.74 113.085 183.876 113.106 183.939 113.172C184.014 113.238 184.097 113.35 184.189 113.509C184.256 113.633 184.347 113.769 184.462 113.914C184.576 114.048 184.741 114.149 184.957 114.217C185 114.344 185.048 114.464 185.103 114.578C185.157 114.692 185.217 114.811 185.284 114.936C185.405 115.175 185.52 115.426 185.631 115.689C185.741 115.941 185.809 116.183 185.836 116.416C185.712 116.694 185.621 117.011 185.561 117.367C185.513 117.722 185.489 118.082 185.489 118.446C185.499 118.798 185.532 119.136 185.588 119.461C185.644 119.787 185.72 120.058 185.816 120.275L185.939 120.549L186.323 120.489C186.737 120.357 187.11 120.216 187.441 120.066C187.771 119.904 188.076 119.721 188.357 119.515C188.637 119.309 188.905 119.081 189.159 118.83C189.412 118.567 189.675 118.263 189.947 117.917C190.206 117.572 190.435 117.187 190.631 116.764C190.826 116.329 190.98 115.885 191.092 115.431C191.216 114.977 191.305 114.526 191.359 114.076C191.413 113.626 191.439 113.208 191.438 112.82C191.653 112.701 191.765 112.524 191.774 112.288L191.707 112.064C191.668 112.007 191.647 111.956 191.644 111.909C191.652 111.85 191.666 111.796 191.687 111.748C191.763 111.473 191.95 111.261 192.246 111.114C192.465 111.241 192.668 111.38 192.853 111.533C193.051 111.685 193.231 111.838 193.393 111.992C193.437 112.306 193.501 112.578 193.586 112.808C193.67 113.025 193.76 113.237 193.855 113.442C193.949 113.636 194.032 113.824 194.102 114.008C194.184 114.19 194.245 114.416 194.286 114.683C194.191 115.041 194.125 115.38 194.086 115.7C194.059 116.007 194.032 116.331 194.007 116.673L193.984 116.869C193.796 117.245 193.61 117.632 193.424 118.031C193.248 118.418 193.106 118.756 192.995 119.045C192.929 119.12 192.87 119.205 192.817 119.303C192.776 119.399 192.736 119.496 192.695 119.592C192.674 119.629 192.642 119.69 192.601 119.774C192.571 119.859 192.539 119.919 192.506 119.957L192.075 119.825L192.005 120.376L191.728 120.464L191.533 120.723C191.294 121.208 191.032 121.618 190.748 121.953C190.476 122.287 190.16 122.589 189.802 122.858C189.455 123.127 189.054 123.387 188.601 123.639C188.158 123.878 187.646 124.139 187.065 124.423C186.829 124.403 186.623 124.398 186.448 124.409C186.283 124.408 186.119 124.406 185.954 124.405C185.791 124.415 185.632 124.42 185.479 124.418C185.327 124.416 185.15 124.409 184.95 124.398C184.896 124.296 184.827 124.224 184.742 124.182C184.658 124.141 184.58 124.122 184.51 124.127C184.269 124.025 184.083 123.872 183.953 123.669C183.822 123.466 183.685 123.24 183.54 122.99C183.472 122.854 183.399 122.718 183.32 122.582C183.253 122.445 183.168 122.315 183.066 122.193L183.411 122.065L182.921 121.568C182.884 121.535 182.841 121.502 182.792 121.47C182.754 121.437 182.717 121.399 182.679 121.354L182.657 121.021C182.55 120.065 182.471 119.183 182.419 118.376C182.379 117.557 182.445 116.831 182.616 116.197L182.646 116.107ZM197.717 123.219C197.668 123.176 197.623 123.126 197.585 123.069C197.545 123.001 197.51 122.916 197.48 122.812C197.304 122.623 197.161 122.403 197.051 122.152C196.941 121.901 196.86 121.642 196.808 121.375C196.755 121.096 196.731 120.816 196.737 120.534C196.743 120.252 196.767 119.986 196.81 119.737C196.838 119.618 196.859 119.493 196.874 119.363C196.919 119.137 196.963 118.917 197.009 118.703C197.053 118.477 197.129 118.29 197.237 118.142C197.182 118.016 197.179 117.876 197.228 117.72C197.277 117.564 197.327 117.42 197.377 117.288C197.398 117.251 197.414 117.221 197.424 117.197C197.433 117.161 197.443 117.131 197.453 117.107C197.568 116.689 197.678 116.288 197.782 115.906C197.898 115.511 198.01 115.134 198.116 114.775C198.309 114.117 198.491 113.471 198.663 112.838C198.845 112.204 199.002 111.531 199.133 110.818C199.223 110.742 199.301 110.69 199.37 110.662C199.393 110.649 199.421 110.635 199.456 110.621C199.49 110.608 199.53 110.599 199.577 110.596C199.831 110.709 200.125 110.814 200.46 110.91C200.806 110.994 201.096 111.028 201.33 111.014L201.645 111.258C201.808 111.424 201.948 111.603 202.066 111.795C202.195 111.974 202.246 112.218 202.218 112.525C202.155 112.635 202.1 112.703 202.055 112.729C202.002 113.002 201.941 113.247 201.872 113.463C201.803 113.667 201.734 113.865 201.664 114.057C201.583 114.274 201.509 114.49 201.44 114.705C201.372 114.921 201.318 115.183 201.279 115.491C201.214 115.577 201.172 115.65 201.152 115.71C201.144 115.769 201.13 115.829 201.11 115.889C201.091 115.96 201.067 116.038 201.037 116.122C201.006 116.195 200.958 116.262 200.891 116.325C200.868 116.691 200.816 116.994 200.738 117.233C200.658 117.461 200.579 117.69 200.499 117.918C200.361 118.337 200.235 118.756 200.121 119.175C200.006 119.581 199.953 120.043 199.962 120.559C200.1 120.515 200.228 120.489 200.344 120.482C200.497 120.472 200.644 120.486 200.787 120.524C201.195 120.287 201.643 120.129 202.131 120.051C202.631 119.973 203.127 119.912 203.617 119.869C204.026 119.843 204.405 119.802 204.754 119.744C204.876 119.819 204.955 119.861 204.991 119.87C205.026 119.868 205.084 119.864 205.166 119.859C205.201 119.857 205.236 119.855 205.272 119.852C205.307 119.85 205.354 119.853 205.413 119.861C205.587 120.014 205.752 120.121 205.909 120.182C206.065 120.231 206.232 120.279 206.411 120.326C206.567 120.375 206.717 120.43 206.862 120.491C207.018 120.54 207.169 120.613 207.316 120.709L207.531 121.594C207.632 121.717 207.679 121.802 207.67 121.849C207.676 121.943 207.658 122.026 207.616 122.099L207.665 122.325C207.446 122.386 207.303 122.448 207.237 122.511C207.169 122.562 207.097 122.631 207.021 122.718C206.893 122.738 206.77 122.752 206.653 122.759C206.42 122.774 206.182 122.824 205.941 122.91C205.582 122.803 205.192 122.764 204.771 122.79C204.607 122.801 204.438 122.817 204.263 122.84C204.1 122.862 203.938 122.89 203.775 122.924C203.601 122.958 203.427 122.993 203.253 123.027C203.079 123.05 202.904 123.067 202.728 123.078C202.589 123.11 202.491 123.134 202.433 123.15C202.376 123.165 202.318 123.186 202.261 123.213C201.872 123.367 201.447 123.523 200.988 123.682C200.54 123.839 200.082 123.933 199.614 123.962C198.924 124.006 198.357 123.866 197.914 123.542C197.861 123.439 197.821 123.371 197.795 123.338C197.77 123.304 197.744 123.265 197.717 123.219ZM211.421 122.351C211.371 122.308 211.327 122.257 211.288 122.201C211.248 122.133 211.213 122.047 211.183 121.944C211.007 121.755 210.864 121.535 210.754 121.284C210.644 121.033 210.563 120.773 210.511 120.507C210.458 120.228 210.435 119.948 210.44 119.666C210.446 119.384 210.47 119.118 210.513 118.869C210.541 118.749 210.562 118.625 210.577 118.495C210.622 118.269 210.667 118.049 210.712 117.834C210.756 117.608 210.832 117.422 210.94 117.274C210.885 117.148 210.882 117.007 210.931 116.852C210.98 116.696 211.03 116.552 211.08 116.42C211.101 116.383 211.117 116.353 211.127 116.329C211.137 116.293 211.146 116.263 211.157 116.239C211.271 115.82 211.381 115.42 211.486 115.038C211.602 114.643 211.713 114.266 211.819 113.907C212.012 113.249 212.194 112.603 212.366 111.97C212.549 111.336 212.706 110.663 212.837 109.95C212.926 109.874 213.005 109.822 213.073 109.794C213.096 109.781 213.124 109.767 213.159 109.753C213.193 109.739 213.234 109.731 213.28 109.728C213.534 109.841 213.828 109.946 214.163 110.042C214.509 110.126 214.799 110.16 215.033 110.145L215.348 110.39C215.511 110.555 215.652 110.734 215.769 110.927C215.898 111.106 215.949 111.35 215.921 111.657C215.858 111.766 215.803 111.834 215.758 111.861C215.705 112.134 215.644 112.379 215.576 112.594C215.506 112.798 215.437 112.997 215.367 113.189C215.286 113.405 215.212 113.621 215.144 113.837C215.075 114.053 215.021 114.315 214.982 114.622C214.917 114.709 214.875 114.782 214.855 114.842C214.847 114.901 214.833 114.961 214.813 115.021C214.795 115.092 214.77 115.17 214.74 115.254C214.71 115.327 214.661 115.394 214.595 115.457C214.571 115.823 214.519 116.125 214.441 116.365C214.361 116.593 214.282 116.821 214.202 117.05C214.064 117.469 213.938 117.888 213.824 118.307C213.709 118.713 213.656 119.174 213.665 119.69C213.803 119.646 213.931 119.621 214.048 119.613C214.2 119.604 214.347 119.618 214.491 119.656C214.898 119.419 215.346 119.261 215.835 119.183C216.334 119.104 216.83 119.044 217.32 119.001C217.729 118.975 218.108 118.933 218.457 118.876C218.579 118.95 218.658 118.992 218.694 119.002C218.729 119 218.788 118.996 218.869 118.991C218.905 118.989 218.94 118.986 218.975 118.984C219.01 118.982 219.057 118.985 219.116 118.993C219.29 119.146 219.456 119.253 219.612 119.314C219.768 119.362 219.935 119.411 220.114 119.458C220.27 119.507 220.42 119.562 220.565 119.623C220.721 119.672 220.872 119.745 221.019 119.841L221.234 120.726C221.336 120.848 221.382 120.933 221.373 120.981C221.379 121.075 221.361 121.158 221.319 121.231L221.368 121.457C221.149 121.518 221.006 121.58 220.94 121.643C220.873 121.694 220.801 121.763 220.724 121.85C220.596 121.87 220.474 121.883 220.357 121.891C220.123 121.906 219.885 121.956 219.644 122.042C219.285 121.935 218.895 121.895 218.474 121.922C218.31 121.932 218.141 121.949 217.966 121.972C217.803 121.994 217.641 122.022 217.478 122.056C217.304 122.09 217.131 122.125 216.957 122.159C216.782 122.182 216.607 122.199 216.431 122.21C216.293 122.242 216.194 122.266 216.137 122.282C216.079 122.297 216.021 122.318 215.964 122.345C215.575 122.499 215.15 122.655 214.691 122.813C214.243 122.971 213.785 123.065 213.317 123.094C212.627 123.138 212.06 122.998 211.617 122.674C211.564 122.571 211.524 122.503 211.499 122.47C211.473 122.436 211.447 122.397 211.421 122.351ZM223.348 114.304C223.372 114.126 223.386 113.984 223.391 113.878C223.396 113.761 223.347 113.64 223.245 113.518C223.28 113.328 223.306 113.179 223.323 113.072C223.351 112.965 223.348 112.818 223.312 112.633C223.398 112.322 223.54 112.055 223.737 111.831C223.946 111.606 224.175 111.416 224.423 111.259C224.671 111.091 224.932 110.951 225.207 110.839C225.481 110.716 225.738 110.612 225.98 110.526C225.977 110.479 225.952 110.458 225.905 110.461C225.858 110.463 225.845 110.435 225.864 110.375C226.488 110.218 227.109 110.008 227.727 109.746C228.356 109.483 228.998 109.243 229.654 109.025C230.309 108.808 230.987 108.659 231.686 108.58C232.385 108.488 233.127 108.529 233.913 108.703C233.969 108.84 234.042 108.97 234.132 109.094C234.222 109.217 234.312 109.341 234.402 109.464C234.503 109.575 234.592 109.687 234.67 109.8C234.747 109.912 234.796 110.032 234.816 110.16C234.964 110.28 235.084 110.413 235.176 110.56C235.278 110.695 235.308 110.886 235.265 111.136C235.142 111.237 235.014 111.339 234.879 111.442C234.745 111.544 234.604 111.641 234.458 111.733C233.923 111.638 233.394 111.624 232.87 111.693C232.346 111.761 231.875 111.832 231.457 111.905C231.319 111.773 231.163 111.718 230.988 111.741C230.813 111.752 230.628 111.793 230.432 111.865C230.248 111.923 230.064 111.988 229.881 112.058C229.697 112.117 229.522 112.139 229.357 112.126C229.236 112.252 229.071 112.344 228.864 112.404C228.656 112.453 228.435 112.496 228.203 112.534C228.195 112.593 228.209 112.634 228.246 112.655C228.282 112.676 228.291 112.722 228.272 112.794C228.361 112.894 228.476 112.963 228.62 113.001C228.762 113.027 228.905 113.053 229.047 113.08C229.202 113.105 229.34 113.149 229.461 113.212C229.582 113.263 229.664 113.358 229.708 113.496C229.919 113.494 230.104 113.541 230.263 113.637C230.421 113.721 230.557 113.829 230.671 113.963C230.785 114.097 230.871 114.244 230.928 114.405C230.984 114.554 231.011 114.693 231.007 114.822C231.062 114.936 231.111 114.98 231.157 114.954C231.214 114.927 231.28 114.952 231.355 115.029C231.413 115.202 231.53 115.382 231.706 115.571C231.894 115.747 232.041 115.943 232.149 116.159C232.194 116.509 232.232 116.823 232.261 117.103C232.303 117.382 232.273 117.66 232.173 117.937C232.007 118.464 231.75 118.944 231.402 119.377C231.053 119.81 230.649 120.2 230.19 120.546C229.741 120.879 229.261 121.18 228.75 121.447C228.238 121.703 227.729 121.923 227.224 122.107C227.177 122.099 227.118 122.102 227.049 122.119C226.991 122.134 226.977 122.1 227.007 122.016C226.908 122.116 226.788 122.182 226.65 122.214C226.522 122.246 226.377 122.261 226.212 122.26C226.06 122.269 225.902 122.273 225.737 122.272C225.585 122.27 225.433 122.286 225.282 122.319C225.183 122.231 225.089 122.143 225.001 122.055C224.925 121.965 224.86 121.858 224.805 121.732C224.746 121.724 224.714 121.691 224.71 121.633C224.718 121.562 224.692 121.528 224.634 121.532C224.631 121.485 224.634 121.45 224.645 121.425C224.655 121.401 224.665 121.377 224.675 121.353C224.72 121.315 224.736 121.29 224.723 121.28C224.722 121.256 224.703 121.24 224.667 121.23C224.642 121.208 224.612 121.187 224.575 121.166C224.55 121.144 224.543 121.115 224.552 121.079C224.604 120.97 224.614 120.846 224.581 120.707C224.56 120.556 224.539 120.405 224.517 120.253C224.496 120.102 224.499 119.961 224.526 119.83C224.552 119.688 224.644 119.564 224.802 119.46C225.284 119.477 225.733 119.425 226.148 119.305C226.575 119.184 226.97 119.029 227.334 118.842C227.71 118.654 228.061 118.455 228.389 118.247C228.727 118.026 229.054 117.823 229.372 117.639C229.399 117.519 229.446 117.417 229.511 117.33C229.587 117.243 229.664 117.162 229.742 117.087C229.818 117 229.889 116.913 229.954 116.827C230.018 116.729 230.064 116.614 230.091 116.483C230.1 116.436 230.097 116.401 230.084 116.378C230.071 116.355 230.052 116.339 230.028 116.329C230.003 116.307 229.979 116.285 229.954 116.263C229.929 116.241 229.915 116.207 229.912 116.16C229.876 116.151 229.84 116.141 229.804 116.132C229.78 116.121 229.757 116.117 229.733 116.118C229.419 115.986 229.09 115.877 228.744 115.794C228.398 115.71 228.104 115.611 227.862 115.497C227.728 115.6 227.589 115.632 227.445 115.594C227.302 115.556 227.13 115.52 226.928 115.486C226.435 115.494 225.964 115.477 225.515 115.435C225.078 115.392 224.65 115.296 224.229 115.146C224.201 115.077 224.168 115.021 224.13 114.976C224.091 114.92 224.008 114.908 223.881 114.939C223.792 114.827 223.698 114.728 223.598 114.64C223.51 114.54 223.426 114.428 223.348 114.304ZM236.066 111.508C236.048 111.415 236.02 111.334 235.98 111.267C235.951 111.186 235.917 111.1 235.876 111.009C235.808 110.872 235.746 110.724 235.689 110.563C235.632 110.402 235.596 110.211 235.582 109.988C235.598 109.87 235.622 109.786 235.654 109.737C235.686 109.676 235.718 109.627 235.751 109.59L235.801 109.27L236.064 109.253C236.158 109.259 236.252 109.259 236.346 109.253C236.451 109.246 236.55 109.24 236.644 109.234C237.088 109.206 237.543 109.16 238.009 109.095C238.475 109.03 238.951 108.959 239.44 108.881C239.973 108.777 240.549 108.687 241.166 108.613C241.217 108.481 241.247 108.397 241.256 108.361C241.277 108.324 241.298 108.282 241.319 108.233L241.505 108.116C241.773 108.087 241.962 108.11 242.073 108.186C242.183 108.249 242.269 108.314 242.332 108.381C242.634 108.338 242.942 108.289 243.256 108.234C243.569 108.167 243.893 108.1 244.23 108.031C244.694 107.943 245.164 107.855 245.639 107.766C246.115 107.677 246.581 107.618 247.037 107.589C247.236 107.577 247.424 107.571 247.6 107.571C247.776 107.572 247.947 107.579 248.112 107.592L248.332 107.736C248.384 107.815 248.448 107.887 248.522 107.953C248.597 108.019 248.683 108.084 248.781 108.148C248.965 108.277 249.146 108.442 249.323 108.642C249.512 108.842 249.596 109.147 249.575 109.56L249.499 109.741C249.455 109.79 249.399 109.841 249.332 109.892L249.171 110.131L248.978 110.144C248.861 110.151 248.774 110.168 248.717 110.195C248.659 110.211 248.591 110.239 248.511 110.279C248.466 110.305 248.415 110.332 248.358 110.359C248.3 110.374 248.237 110.396 248.168 110.424C248.039 110.42 247.939 110.421 247.869 110.425C247.798 110.43 247.717 110.435 247.623 110.441C247.272 110.463 246.894 110.51 246.487 110.583C246.081 110.656 245.687 110.734 245.304 110.817C245.026 110.87 244.759 110.922 244.504 110.973C244.248 111.013 244.016 111.051 243.807 111.088C243.709 111.399 243.621 111.675 243.542 111.915C243.463 112.154 243.379 112.395 243.288 112.635C243.198 112.876 243.114 113.122 243.036 113.373C242.957 113.613 242.886 113.882 242.822 114.18C242.695 114.399 242.591 114.611 242.511 114.816C242.429 115.009 242.367 115.23 242.324 115.479C242.161 115.689 242.046 115.914 241.979 116.153C241.923 116.391 241.872 116.594 241.824 116.762L241.77 117.029C241.693 117.116 241.645 117.184 241.624 117.232C241.616 117.28 241.59 117.334 241.547 117.396C241.521 117.55 241.484 117.699 241.434 117.843C241.414 117.903 241.395 117.969 241.376 118.04C241.357 118.1 241.354 118.148 241.368 118.182C241.352 118.312 241.324 118.414 241.281 118.487C241.286 118.557 241.284 118.627 241.277 118.698C241.27 118.769 241.262 118.84 241.255 118.911C241.237 118.994 241.224 119.072 241.217 119.143C241.209 119.202 241.219 119.26 241.246 119.317C241.284 119.361 241.322 119.406 241.36 119.451C241.398 119.495 241.431 119.552 241.459 119.62C241.484 119.642 241.514 119.658 241.55 119.667C241.586 119.677 241.616 119.693 241.641 119.715C241.74 119.79 241.83 119.832 241.913 119.838L242.102 120.038C242.198 120.454 242.155 120.786 241.971 121.032C241.777 121.315 241.435 121.471 240.944 121.502L240.697 121.5C240.61 121.424 240.56 121.374 240.547 121.351C240.439 121.311 240.348 121.276 240.276 121.245C240.204 121.226 240.137 121.178 240.073 121.1C240.048 121.078 240.018 121.068 239.983 121.07C239.947 121.061 239.917 121.045 239.892 121.023C239.773 120.995 239.677 120.96 239.603 120.918L239.404 120.825C239.408 120.707 239.409 120.625 239.406 120.578C239.304 120.456 239.219 120.32 239.151 120.172C239.095 120.023 239.044 119.867 238.998 119.706C238.955 119.579 238.913 119.465 238.871 119.362C238.841 119.258 238.794 119.167 238.73 119.089C238.655 118.272 238.688 117.583 238.828 117.022C238.968 116.449 239.127 115.893 239.304 115.354C239.403 115.065 239.496 114.772 239.583 114.473C239.669 114.174 239.744 113.87 239.807 113.56L239.987 113.355C240.065 113.28 240.115 113.236 240.137 113.222C240.128 113.07 240.148 112.922 240.197 112.778C240.246 112.623 240.301 112.466 240.361 112.31C240.402 112.213 240.437 112.117 240.466 112.021C240.507 111.925 240.531 111.841 240.539 111.77C240.457 111.775 240.381 111.786 240.312 111.802C240.253 111.806 240.189 111.816 240.12 111.832C239.97 111.877 239.825 111.904 239.685 111.912C239.579 111.919 239.503 111.918 239.455 111.909C239.365 111.962 239.279 111.997 239.198 112.014C239.116 112.019 239.034 112.024 238.952 112.029L238.742 112.043L238.531 112.056C238.391 112.065 238.281 112.089 238.201 112.13C238.037 112.14 237.932 112.147 237.885 112.15C237.839 112.153 237.786 112.156 237.728 112.16L237.517 112.173L237.307 112.186C237.213 112.192 237.107 112.193 236.99 112.189C236.871 112.173 236.745 112.134 236.612 112.072L236.481 111.939C236.402 111.815 236.334 111.749 236.274 111.741L236.078 111.701L236.066 111.508ZM248.097 119.006L248.314 118.816L248.309 118.447C248.556 117.715 248.811 117.012 249.073 116.337C249.347 115.663 249.632 114.969 249.928 114.258C250.019 114.029 250.11 113.8 250.201 113.571C250.304 113.342 250.401 113.106 250.491 112.866C250.477 112.82 250.468 112.773 250.465 112.727C250.461 112.668 250.469 112.603 250.488 112.531C250.637 112.287 250.752 112.068 250.834 111.875C250.927 111.682 251.014 111.482 251.095 111.278C251.186 111.037 251.282 110.796 251.384 110.555C251.498 110.313 251.641 110.075 251.814 109.841L251.926 109.657L252.12 109.663C252.165 109.636 252.211 109.616 252.257 109.601C252.314 109.574 252.384 109.558 252.465 109.553L252.785 109.585C253.159 109.385 253.483 109.113 253.754 108.767C254.037 108.408 254.315 107.985 254.59 107.498L254.781 107.187L255.073 107.344C255.134 107.376 255.23 107.405 255.361 107.432C255.491 107.459 255.629 107.491 255.772 107.529C256.021 107.572 256.265 107.627 256.504 107.694C256.743 107.749 256.93 107.837 257.067 107.958L257.165 108.11C257.196 108.237 257.221 108.353 257.24 108.458C257.27 108.561 257.3 108.665 257.33 108.769C257.392 109.012 257.449 109.255 257.499 109.498C257.549 109.73 257.589 109.991 257.62 110.283C257.693 110.513 257.761 110.75 257.823 110.992C257.896 111.222 257.964 111.453 258.025 111.684C258.105 112.019 258.19 112.343 258.281 112.654C258.37 112.954 258.482 113.24 258.617 113.514C258.734 113.506 258.804 113.508 258.828 113.518C258.965 113.45 259.127 113.405 259.313 113.381L259.54 113.349L259.623 113.555C259.649 113.589 259.681 113.622 259.718 113.655C259.755 113.688 259.798 113.72 259.847 113.753C260.035 113.752 260.172 113.785 260.259 113.85C260.356 113.902 260.436 113.956 260.498 114.011C260.523 114.033 260.554 114.06 260.591 114.093C260.628 114.114 260.658 114.13 260.682 114.14L261.006 114.243L260.851 114.587C260.738 114.841 260.555 115.093 260.3 115.344C260.058 115.595 259.778 115.806 259.46 115.979C259.489 116.059 259.505 116.134 259.509 116.205C259.526 116.274 259.548 116.355 259.578 116.447C259.639 116.678 259.69 116.921 259.73 117.177C259.78 117.42 259.797 117.678 259.779 117.949C259.681 118.26 259.558 118.544 259.41 118.8C259.272 119.044 259.099 119.272 258.889 119.485C258.691 119.685 258.461 119.858 258.2 120.004C257.939 120.138 257.662 120.22 257.37 120.25C257.204 120.226 257.079 120.192 256.994 120.151C256.921 120.109 256.854 120.066 256.792 120.023C256.694 119.959 256.615 119.917 256.555 119.897L256.321 119.806L256.374 119.538C256.403 119.443 256.392 119.361 256.341 119.294C256.302 119.226 256.214 119.138 256.078 119.029C256.029 118.997 255.986 118.964 255.948 118.931C255.91 118.887 255.866 118.843 255.817 118.799L255.44 118.418L256.009 118.223C256.354 118.107 256.58 117.975 256.688 117.828C256.796 117.668 256.826 117.402 256.779 117.029C256.483 116.989 256.243 116.999 256.058 117.057C255.874 117.104 255.689 117.157 255.505 117.216C255.24 117.303 254.981 117.384 254.728 117.459C254.473 117.522 254.194 117.563 253.89 117.582C253.691 117.595 253.48 117.591 253.255 117.57L253.061 117.564L252.996 117.375C252.995 117.351 252.976 117.329 252.939 117.308C252.914 117.274 252.888 117.246 252.863 117.225C252.8 117.158 252.724 117.069 252.635 116.957C252.546 116.845 252.519 116.7 252.555 116.522C252.465 116.399 252.409 116.267 252.389 116.127C252.348 116.224 252.313 116.32 252.284 116.416C252.266 116.499 252.247 116.583 252.229 116.666L252.173 116.898L251.948 116.948C251.926 116.973 251.905 117.009 251.884 117.058C251.875 117.105 251.878 117.14 251.891 117.163L251.973 117.351L251.808 117.52C251.787 117.557 251.759 117.588 251.726 117.614C251.692 117.639 251.664 117.665 251.642 117.689C251.627 117.82 251.6 117.945 251.56 118.065C251.533 118.184 251.499 118.303 251.46 118.423C251.413 118.614 251.366 118.799 251.319 118.978C251.283 119.156 251.271 119.333 251.282 119.509L251.226 119.741C251.174 119.839 251.102 119.914 251.012 119.966C250.933 120.018 250.853 120.064 250.774 120.105C250.66 120.159 250.581 120.211 250.537 120.261L250.499 120.492L250.238 120.544C250.088 120.588 249.978 120.619 249.909 120.635C249.851 120.65 249.782 120.661 249.7 120.666L249.47 120.663C249.321 120.531 249.198 120.433 249.1 120.369C249.013 120.293 248.909 120.229 248.788 120.178L248.674 120.044C248.621 119.953 248.587 119.873 248.571 119.804C248.554 119.723 248.531 119.642 248.502 119.562C248.469 119.411 248.428 119.308 248.377 119.253L248.097 119.006ZM253.405 114.09C253.256 114.335 253.113 114.59 252.978 114.857C253.059 114.84 253.134 114.83 253.205 114.825C253.286 114.82 253.368 114.809 253.449 114.792C253.857 114.743 254.235 114.689 254.584 114.632C254.932 114.575 255.309 114.492 255.713 114.384C255.592 113.958 255.459 113.526 255.314 113.089C255.18 112.639 255.034 112.191 254.876 111.743L254.8 111.924C254.527 112.258 254.268 112.615 254.022 112.994C253.776 113.374 253.576 113.733 253.421 114.072L253.405 114.09ZM265.143 118.067C264.787 117.831 264.486 117.527 264.239 117.156C264.004 116.783 263.809 116.384 263.653 115.96C263.508 115.534 263.398 115.095 263.323 114.642C263.258 114.176 263.218 113.733 263.203 113.311C263.288 112.989 263.399 112.694 263.535 112.427C263.67 112.148 263.823 111.886 263.996 111.64C264.167 111.383 264.346 111.143 264.531 110.92C264.728 110.684 264.918 110.449 265.103 110.214C265.173 110.21 265.239 110.223 265.299 110.254C265.338 110.123 265.401 110.007 265.489 109.908C265.576 109.808 265.671 109.72 265.771 109.643C265.871 109.555 265.972 109.472 266.073 109.395C266.173 109.307 266.255 109.208 266.318 109.098C266.606 109.009 266.857 108.893 267.071 108.751C267.297 108.607 267.51 108.453 267.711 108.287C267.912 108.122 268.119 107.968 268.333 107.825C268.547 107.683 268.798 107.567 269.086 107.478C269.184 107.355 269.307 107.247 269.453 107.155C269.612 107.063 269.765 106.977 269.913 106.897C270.072 106.817 270.219 106.731 270.354 106.64C270.501 106.549 270.617 106.43 270.702 106.284C270.778 106.373 270.879 106.402 271.007 106.37C271.133 106.327 271.248 106.284 271.351 106.243C271.42 106.227 271.479 106.235 271.528 106.267C271.577 106.299 271.621 106.337 271.659 106.382C271.708 106.414 271.745 106.435 271.769 106.445C271.804 106.455 271.837 106.417 271.867 106.333C271.962 106.339 271.988 106.378 271.945 106.452C271.915 106.524 271.894 106.572 271.884 106.596C271.999 106.566 272.094 106.583 272.169 106.649C272.255 106.702 272.38 106.735 272.545 106.748C272.607 106.803 272.628 106.849 272.607 106.885C272.586 106.922 272.572 106.981 272.565 107.064C272.994 107.166 273.276 107.354 273.411 107.627C273.545 107.888 273.575 108.174 273.501 108.484C273.426 108.783 273.268 109.069 273.027 109.342C272.797 109.603 272.532 109.784 272.233 109.886C271.877 110.002 271.543 110.117 271.233 110.231C270.935 110.344 270.644 110.468 270.359 110.603C270.086 110.738 269.825 110.895 269.578 111.075C269.343 111.243 269.138 111.438 268.964 111.66C268.642 111.775 268.352 111.922 268.094 112.103C267.847 112.283 267.613 112.48 267.391 112.693C267.182 112.906 266.979 113.131 266.782 113.366C266.585 113.59 266.388 113.814 266.191 114.038C266.203 114.236 266.178 114.391 266.114 114.5C266.051 114.61 265.981 114.72 265.906 114.831C265.944 115.051 266.003 115.241 266.083 115.401C266.175 115.548 266.267 115.7 266.359 115.859C267.312 116.08 268.312 116.193 269.357 116.197C270.413 116.189 271.456 116.158 272.486 116.105C272.6 116.238 272.726 116.365 272.863 116.486C273.01 116.594 273.141 116.709 273.254 116.831C273.38 116.952 273.477 117.099 273.547 117.27C273.627 117.43 273.657 117.627 273.637 117.864C273.451 118.075 273.247 118.282 273.025 118.484C272.802 118.674 272.579 118.864 272.356 119.054C272.252 119.073 272.123 119.081 271.97 119.079C271.829 119.076 271.677 119.08 271.513 119.09C271.361 119.1 271.204 119.121 271.042 119.155C270.89 119.177 270.746 119.221 270.61 119.288C269.871 119.312 269.111 119.272 268.33 119.169C267.548 119.054 266.822 118.906 266.153 118.725C266.015 118.581 265.871 118.449 265.723 118.33C265.574 118.198 265.38 118.111 265.143 118.067ZM277.072 115.62C277.081 115.573 277.085 115.537 277.083 115.514C277.094 115.49 277.074 115.462 277.025 115.43C276.997 115.349 277.011 115.295 277.068 115.268C277.125 115.241 277.182 115.214 277.239 115.187C277.253 114.482 277.329 113.837 277.468 113.253C277.619 112.656 277.781 112.076 277.957 111.513C278.144 110.949 278.326 110.386 278.502 109.823C278.688 109.248 278.831 108.628 278.93 107.964C279.072 107.802 279.184 107.613 279.264 107.397C279.356 107.18 279.442 106.963 279.522 106.747C279.613 106.518 279.717 106.3 279.833 106.093C279.961 105.885 280.137 105.709 280.363 105.566C280.469 105.571 280.564 105.588 280.648 105.618C280.743 105.636 280.833 105.66 280.917 105.689C281.001 105.719 281.091 105.743 281.186 105.76C281.281 105.778 281.381 105.783 281.486 105.777C281.537 105.832 281.582 105.9 281.622 105.979C281.662 106.047 281.713 106.109 281.775 106.163L282.087 106.091C282.248 106.21 282.392 106.365 282.522 106.556C282.651 106.736 282.745 106.93 282.805 107.137C282.865 107.333 282.871 107.532 282.826 107.735C282.779 107.926 282.654 108.08 282.45 108.199C282.466 108.269 282.469 108.321 282.46 108.357C282.45 108.393 282.435 108.429 282.414 108.466C282.404 108.49 282.4 108.519 282.402 108.554C282.403 108.578 282.429 108.611 282.479 108.655C282.357 108.769 282.248 108.911 282.153 109.081C282.058 109.24 281.981 109.409 281.921 109.589C281.862 109.769 281.815 109.948 281.779 110.126C281.755 110.304 281.742 110.469 281.74 110.622C282.057 110.249 282.434 109.897 282.871 109.564C283.308 109.231 283.687 108.919 284.009 108.629C284.267 108.425 284.489 108.234 284.678 108.058C284.877 107.869 285.078 107.698 285.279 107.544C285.48 107.379 285.688 107.225 285.902 107.082C286.127 106.927 286.351 106.76 286.575 106.582C286.689 106.527 286.776 106.51 286.836 106.53C286.907 106.549 286.973 106.574 287.034 106.605C287.041 106.523 287.02 106.477 286.973 106.468C286.924 106.448 286.903 106.39 286.909 106.296C287.104 106.225 287.275 106.144 287.422 106.052C287.58 105.96 287.745 105.873 287.916 105.792C288.041 105.913 288.167 106.046 288.294 106.191C288.419 106.324 288.582 106.39 288.782 106.389C288.862 106.536 288.951 106.648 289.05 106.724C289.159 106.788 289.263 106.852 289.361 106.916C289.471 106.979 289.564 107.061 289.641 107.162C289.717 107.251 289.768 107.401 289.793 107.611C289.752 107.707 289.7 107.816 289.637 107.937C289.585 108.046 289.541 108.184 289.505 108.351C289.24 108.626 288.968 108.872 288.689 109.09C288.42 109.295 288.139 109.494 287.846 109.689C287.565 109.883 287.272 110.083 286.968 110.291C286.676 110.497 286.38 110.733 286.079 110.999C286.016 111.108 285.934 111.207 285.834 111.296C285.734 111.385 285.628 111.473 285.516 111.563C285.416 111.64 285.315 111.722 285.215 111.811C285.127 111.899 285.057 112.003 285.006 112.123C284.959 112.126 284.919 112.135 284.884 112.149C284.849 112.151 284.809 112.159 284.762 112.174C284.722 112.271 284.656 112.351 284.566 112.415C284.488 112.479 284.435 112.559 284.405 112.655C284.645 113.097 284.942 113.425 285.296 113.637C285.65 113.85 286.04 113.995 286.468 114.074C286.896 114.153 287.356 114.182 287.848 114.163C288.339 114.143 288.849 114.117 289.375 114.084C289.433 114.068 289.454 114.037 289.439 113.991C289.436 113.933 289.469 113.907 289.54 113.915C289.719 113.962 289.87 114.023 289.992 114.097C290.114 114.172 290.231 114.252 290.342 114.339C290.453 114.426 290.559 114.519 290.659 114.619C290.771 114.706 290.894 114.798 291.029 114.895C291.041 115.446 290.905 115.906 290.623 116.277C290.353 116.634 289.978 116.934 289.5 117.176C288.823 117.242 288.232 117.262 287.725 117.235C287.219 117.209 286.713 117.111 286.21 116.944C286.174 116.934 286.136 116.901 286.098 116.845C286.071 116.788 286.045 116.749 286.02 116.727C285.922 116.674 285.816 116.657 285.699 116.677C285.583 116.696 285.483 116.69 285.399 116.66C285.291 116.62 285.109 116.526 284.853 116.378C284.608 116.229 284.382 116.091 284.175 115.963C283.917 115.78 283.665 115.602 283.419 115.43C283.184 115.245 282.971 115.041 282.781 114.818C282.742 114.762 282.688 114.736 282.618 114.741C282.559 114.744 282.5 114.73 282.439 114.699C282.046 114.982 281.721 115.326 281.465 115.73C281.22 116.121 280.981 116.523 280.749 116.937C280.516 117.34 280.265 117.725 279.995 118.095C279.735 118.452 279.395 118.738 278.974 118.952C278.846 118.96 278.733 118.944 278.637 118.903C278.541 118.874 278.45 118.827 278.363 118.762C278.278 118.709 278.192 118.655 278.107 118.602C278.021 118.549 277.925 118.514 277.818 118.497C277.808 118.333 277.763 118.183 277.684 118.047C277.616 117.899 277.543 117.769 277.466 117.656C277.399 117.531 277.344 117.411 277.302 117.297C277.271 117.181 277.299 117.062 277.385 116.939C277.25 116.842 277.121 116.762 277 116.699C277.077 116.612 277.107 116.534 277.091 116.465C277.086 116.394 277.064 116.325 277.025 116.257C276.985 116.19 276.952 116.121 276.924 116.052C276.907 115.971 276.925 115.882 276.977 115.785C277.023 115.77 277.039 115.746 277.025 115.711C277.023 115.676 277.039 115.646 277.072 115.62Z" fill="#E2D6E3"/>
</g>
<path d="M175.48 82V37.2H185.912L204.472 67.664H198.968L217.016 37.2H227.448L227.576 82H215.928L215.8 54.928H217.784L204.28 77.584H198.648L184.76 54.928H187.192V82H175.48ZM246.335 82.896C243.049 82.896 240.063 82.3413 237.375 81.232C234.729 80.08 232.532 78.4373 230.783 76.304L237.695 68.112C238.889 69.648 240.127 70.8213 241.407 71.632C242.687 72.4 244.031 72.784 245.439 72.784C249.193 72.784 251.071 70.608 251.071 66.256V46.992H235.583V37.2H263.615V65.488C263.615 71.3333 262.143 75.7067 259.199 78.608C256.255 81.4667 251.967 82.896 246.335 82.896ZM290.793 82V37.2H301.225L319.785 67.664H314.281L332.329 37.2H342.761L342.889 82H331.241L331.113 54.928H333.097L319.593 77.584H313.961L300.073 54.928H302.505V82H290.793ZM363.503 54.544H384.303V64.016H363.503V54.544ZM364.399 72.208H387.823V82H351.855V37.2H386.991V46.992H364.399V72.208ZM405.808 82V63.056L408.752 70.672L388.72 37.2H402.096L416.56 61.456H408.816L423.344 37.2H435.632L415.664 70.672L418.48 63.056V82H405.808ZM450.316 54.544H471.116V64.016H450.316V54.544ZM451.212 72.208H474.636V82H438.668V37.2H473.804V46.992H451.212V72.208ZM481.668 82V37.2H502.148C506.244 37.2 509.764 37.8613 512.708 39.184C515.694 40.5067 517.998 42.4267 519.62 44.944C521.241 47.4187 522.052 50.3627 522.052 53.776C522.052 57.1467 521.241 60.0693 519.62 62.544C517.998 64.976 515.694 66.8533 512.708 68.176C509.764 69.456 506.244 70.096 502.148 70.096H488.708L494.34 64.784V82H481.668ZM509.38 82L498.244 65.68H511.748L522.948 82H509.38ZM494.34 66.128L488.708 60.304H501.38C504.025 60.304 505.988 59.728 507.268 58.576C508.59 57.424 509.252 55.824 509.252 53.776C509.252 51.6853 508.59 50.064 507.268 48.912C505.988 47.76 504.025 47.184 501.38 47.184H488.708L494.34 41.36V66.128Z" fill="#CDBFD9"/>
<defs>
<filter id="filter0_d_733_4" x="166.079" y="100.772" width="127.167" height="25.292" filterUnits="userSpaceOnUse" color-interpolation-filters="sRGB">
<feFlood flood-opacity="0" result="BackgroundImageFix"/>
<feColorMatrix in="SourceAlpha" type="matrix" values="0 0 0 0 0 0 0 0 0 0 0 0 0 0 0 0 0 0 127 0" result="hardAlpha"/>
<feOffset dy="-2"/>
<feGaussianBlur stdDeviation="1"/>
<feComposite in2="hardAlpha" operator="out"/>
<feColorMatrix type="matrix" values="0 0 0 0 0 0 0 0 0 0 0 0 0 0 0 0 0 0 0.15 0"/>
<feBlend mode="normal" in2="BackgroundImageFix" result="effect1_dropShadow_733_4"/>
<feBlend mode="normal" in="SourceGraphic" in2="effect1_dropShadow_733_4" result="shape"/>
</filter>
</defs>
</svg>
