<svg width="525" height="141" viewBox="0 0 525 141" fill="none" xmlns="http://www.w3.org/2000/svg">
<path fill-rule="evenodd" clip-rule="evenodd" d="M12.026 111.5V23.5C8.13544 28.2885 5.02839 39.6155 2.99808 45.2864C-2.96786 62.1552 0.890329 81 6.55695 98C7.55695 101 11.1675 110.17 12.026 111.5ZM24.1237 10.942C30.2304 6.23104 37.2238 2.76788 44.5313 1.11721C61.6344 -2.66918 80.5397 3.50514 97.1616 14.5576L62.4981 48.3305L24.1237 10.942ZM113.281 111.5V27.1172C124.998 42.1172 128.998 56.7804 128.998 67.1172C128.998 79.8406 121.762 104.936 113.281 111.5Z" fill="#C6B4F9"/>
<path d="M28.4981 128.792C34.6048 133.503 41.6906 137.467 48.9981 139.117C66.1012 142.904 78.3762 137.99 94.9981 126.937L62.8079 96.1172L28.4981 128.792Z" fill="#C6B4F9"/>
<path fill-rule="evenodd" clip-rule="evenodd" d="M103.354 20.6172V89.2734L86.4872 73.2999L86.4872 73.195L86.4872 60.3028L86.4872 59.1123L62.6758 82.3894V60.3028L103.354 20.6172ZM69.7675 89.2734L103.354 121.617V98.5046L81.5517 77.8026L69.7675 89.2734Z" fill="#614385"/>
<path fill-rule="evenodd" clip-rule="evenodd" d="M21.998 121.617V20.6172L62.6758 60.3028V82.3894L38.8645 59.1123L38.8645 60.3028L38.8645 73.195L38.8645 105.346L21.998 121.617Z" fill="#894E8E"/>
<path d="M176.391 97.1422V101.651H181.692V103.073H176.391V108.617H174.645V95.7202H182.592V97.1422H176.391ZM190.736 101.966C191.24 101.966 191.684 101.906 192.068 101.786C192.458 101.66 192.782 101.486 193.04 101.264C193.304 101.036 193.502 100.766 193.634 100.454C193.766 100.142 193.832 99.7972 193.832 99.4192C193.832 98.6512 193.58 98.0722 193.076 97.6822C192.572 97.2922 191.816 97.0972 190.808 97.0972H188.9V101.966H190.736ZM196.694 108.617H195.146C194.828 108.617 194.594 108.494 194.444 108.248L191.096 103.64C190.994 103.496 190.883 103.394 190.763 103.334C190.649 103.268 190.469 103.235 190.223 103.235H188.9V108.617H187.163V95.7202H190.808C191.624 95.7202 192.329 95.8042 192.923 95.9722C193.517 96.1342 194.006 96.3712 194.39 96.6832C194.78 96.9952 195.068 97.3732 195.254 97.8172C195.44 98.2552 195.533 98.7472 195.533 99.2932C195.533 99.7492 195.461 100.175 195.317 100.571C195.173 100.967 194.963 101.324 194.687 101.642C194.417 101.954 194.084 102.221 193.688 102.443C193.298 102.665 192.854 102.833 192.356 102.947C192.578 103.073 192.77 103.256 192.932 103.496L196.694 108.617ZM212.581 102.173C212.581 103.139 212.428 104.027 212.122 104.837C211.816 105.641 211.384 106.334 210.826 106.916C210.268 107.498 209.596 107.951 208.81 108.275C208.03 108.593 207.166 108.752 206.218 108.752C205.27 108.752 204.406 108.593 203.626 108.275C202.846 107.951 202.177 107.498 201.619 106.916C201.061 106.334 200.629 105.641 200.323 104.837C200.017 104.027 199.864 103.139 199.864 102.173C199.864 101.207 200.017 100.322 200.323 99.5182C200.629 98.7082 201.061 98.0122 201.619 97.4302C202.177 96.8422 202.846 96.3862 203.626 96.0622C204.406 95.7382 205.27 95.5762 206.218 95.5762C207.166 95.5762 208.03 95.7382 208.81 96.0622C209.596 96.3862 210.268 96.8422 210.826 97.4302C211.384 98.0122 211.816 98.7082 212.122 99.5182C212.428 100.322 212.581 101.207 212.581 102.173ZM210.79 102.173C210.79 101.381 210.682 100.67 210.466 100.04C210.25 99.4102 209.944 98.8792 209.548 98.4472C209.152 98.0092 208.672 97.6732 208.108 97.4392C207.544 97.2052 206.914 97.0882 206.218 97.0882C205.528 97.0882 204.901 97.2052 204.337 97.4392C203.773 97.6732 203.29 98.0092 202.888 98.4472C202.492 98.8792 202.186 99.4102 201.97 100.04C201.754 100.67 201.646 101.381 201.646 102.173C201.646 102.965 201.754 103.676 201.97 104.306C202.186 104.93 202.492 105.461 202.888 105.899C203.29 106.331 203.773 106.664 204.337 106.898C204.901 107.126 205.528 107.24 206.218 107.24C206.914 107.24 207.544 107.126 208.108 106.898C208.672 106.664 209.152 106.331 209.548 105.899C209.944 105.461 210.25 104.93 210.466 104.306C210.682 103.676 210.79 102.965 210.79 102.173ZM227.868 95.7202V108.617H226.995C226.857 108.617 226.74 108.593 226.644 108.545C226.554 108.497 226.464 108.416 226.374 108.302L218.913 98.5822C218.925 98.7322 218.934 98.8792 218.94 99.0232C218.946 99.1672 218.949 99.3022 218.949 99.4282V108.617H217.419V95.7202H218.319C218.397 95.7202 218.463 95.7262 218.517 95.7382C218.571 95.7442 218.619 95.7592 218.661 95.7832C218.703 95.8012 218.745 95.8312 218.787 95.8732C218.829 95.9092 218.874 95.9572 218.922 96.0172L226.383 105.728C226.371 105.572 226.359 105.422 226.347 105.278C226.341 105.128 226.338 104.987 226.338 104.855V95.7202H227.868ZM242.226 97.1872H238.05V108.617H236.313V97.1872H232.128V95.7202H242.226V97.1872ZM254.436 107.195L254.427 108.617H246.48V95.7202H254.427V97.1422H248.226V101.426H253.248V102.794H248.226V107.195H254.436ZM269.657 95.7202V108.617H268.784C268.646 108.617 268.529 108.593 268.433 108.545C268.343 108.497 268.253 108.416 268.163 108.302L260.702 98.5822C260.714 98.7322 260.723 98.8792 260.729 99.0232C260.735 99.1672 260.738 99.3022 260.738 99.4282V108.617H259.208V95.7202H260.108C260.186 95.7202 260.252 95.7262 260.306 95.7382C260.36 95.7442 260.408 95.7592 260.45 95.7832C260.492 95.8012 260.534 95.8312 260.576 95.8732C260.618 95.9092 260.663 95.9572 260.711 96.0172L268.172 105.728C268.16 105.572 268.148 105.422 268.136 105.278C268.13 105.128 268.127 104.987 268.127 104.855V95.7202H269.657ZM286.473 102.173C286.473 103.139 286.32 104.018 286.014 104.81C285.708 105.602 285.276 106.28 284.718 106.844C284.16 107.408 283.488 107.846 282.702 108.158C281.922 108.464 281.058 108.617 280.11 108.617H275.295V95.7202H280.11C281.058 95.7202 281.922 95.8762 282.702 96.1882C283.488 96.4942 284.16 96.9322 284.718 97.5022C285.276 98.0662 285.708 98.7442 286.014 99.5362C286.32 100.328 286.473 101.207 286.473 102.173ZM284.682 102.173C284.682 101.381 284.574 100.673 284.358 100.049C284.142 99.4252 283.836 98.8972 283.44 98.4652C283.044 98.0332 282.564 97.7032 282 97.4752C281.436 97.2472 280.806 97.1332 280.11 97.1332H277.041V107.204H280.11C280.806 107.204 281.436 107.09 282 106.862C282.564 106.634 283.044 106.307 283.44 105.881C283.836 105.449 284.142 104.921 284.358 104.297C284.574 103.673 284.682 102.965 284.682 102.173Z" fill="#614385" fill-opacity="0.67"/>
<path d="M304.87 97.7362C304.816 97.8262 304.756 97.8952 304.69 97.9432C304.63 97.9852 304.555 98.0062 304.465 98.0062C304.363 98.0062 304.243 97.9552 304.105 97.8532C303.967 97.7512 303.793 97.6402 303.583 97.5202C303.379 97.3942 303.13 97.2802 302.836 97.1782C302.548 97.0762 302.197 97.0252 301.783 97.0252C301.393 97.0252 301.048 97.0792 300.748 97.1872C300.454 97.2892 300.205 97.4302 300.001 97.6102C299.803 97.7902 299.653 98.0032 299.551 98.2492C299.449 98.4892 299.398 98.7502 299.398 99.0322C299.398 99.3922 299.485 99.6922 299.659 99.9322C299.839 100.166 300.073 100.367 300.361 100.535C300.655 100.703 300.985 100.85 301.351 100.976C301.723 101.096 302.101 101.222 302.485 101.354C302.875 101.486 303.253 101.636 303.619 101.804C303.991 101.966 304.321 102.173 304.609 102.425C304.903 102.677 305.137 102.986 305.311 103.352C305.491 103.718 305.581 104.168 305.581 104.702C305.581 105.266 305.485 105.797 305.293 106.295C305.101 106.787 304.819 107.216 304.447 107.582C304.081 107.948 303.628 108.236 303.088 108.446C302.554 108.656 301.945 108.761 301.261 108.761C300.421 108.761 299.659 108.611 298.975 108.311C298.291 108.005 297.706 107.594 297.22 107.078L297.724 106.25C297.772 106.184 297.829 106.13 297.895 106.088C297.967 106.04 298.045 106.016 298.129 106.016C298.207 106.016 298.294 106.049 298.39 106.115C298.492 106.175 298.606 106.253 298.732 106.349C298.858 106.445 299.002 106.55 299.164 106.664C299.326 106.778 299.509 106.883 299.713 106.979C299.923 107.075 300.16 107.156 300.424 107.222C300.688 107.282 300.985 107.312 301.315 107.312C301.729 107.312 302.098 107.255 302.422 107.141C302.746 107.027 303.019 106.868 303.241 106.664C303.469 106.454 303.643 106.205 303.763 105.917C303.883 105.629 303.943 105.308 303.943 104.954C303.943 104.564 303.853 104.246 303.673 104C303.499 103.748 303.268 103.538 302.98 103.37C302.692 103.202 302.362 103.061 301.99 102.947C301.618 102.827 301.24 102.707 300.856 102.587C300.472 102.461 300.094 102.317 299.722 102.155C299.35 101.993 299.02 101.783 298.732 101.525C298.444 101.267 298.21 100.946 298.03 100.562C297.856 100.172 297.769 99.6922 297.769 99.1222C297.769 98.6662 297.856 98.2252 298.03 97.7992C298.21 97.3732 298.468 96.9952 298.804 96.6652C299.146 96.3352 299.563 96.0712 300.055 95.8732C300.553 95.6752 301.123 95.5762 301.765 95.5762C302.485 95.5762 303.139 95.6902 303.727 95.9182C304.321 96.1462 304.843 96.4762 305.293 96.9082L304.87 97.7362ZM322.303 102.173C322.303 103.139 322.15 104.027 321.844 104.837C321.538 105.641 321.106 106.334 320.548 106.916C319.99 107.498 319.318 107.951 318.532 108.275C317.752 108.593 316.888 108.752 315.94 108.752C314.992 108.752 314.128 108.593 313.348 108.275C312.568 107.951 311.899 107.498 311.341 106.916C310.783 106.334 310.351 105.641 310.045 104.837C309.739 104.027 309.586 103.139 309.586 102.173C309.586 101.207 309.739 100.322 310.045 99.5182C310.351 98.7082 310.783 98.0122 311.341 97.4302C311.899 96.8422 312.568 96.3862 313.348 96.0622C314.128 95.7382 314.992 95.5762 315.94 95.5762C316.888 95.5762 317.752 95.7382 318.532 96.0622C319.318 96.3862 319.99 96.8422 320.548 97.4302C321.106 98.0122 321.538 98.7082 321.844 99.5182C322.15 100.322 322.303 101.207 322.303 102.173ZM320.512 102.173C320.512 101.381 320.404 100.67 320.188 100.04C319.972 99.4102 319.666 98.8792 319.27 98.4472C318.874 98.0092 318.394 97.6732 317.83 97.4392C317.266 97.2052 316.636 97.0882 315.94 97.0882C315.25 97.0882 314.623 97.2052 314.059 97.4392C313.495 97.6732 313.012 98.0092 312.61 98.4472C312.214 98.8792 311.908 99.4102 311.692 100.04C311.476 100.67 311.368 101.381 311.368 102.173C311.368 102.965 311.476 103.676 311.692 104.306C311.908 104.93 312.214 105.461 312.61 105.899C313.012 106.331 313.495 106.664 314.059 106.898C314.623 107.126 315.25 107.24 315.94 107.24C316.636 107.24 317.266 107.126 317.83 106.898C318.394 106.664 318.874 106.331 319.27 105.899C319.666 105.461 319.972 104.93 320.188 104.306C320.404 103.676 320.512 102.965 320.512 102.173ZM328.887 97.1422V101.651H334.188V103.073H328.887V108.617H327.141V95.7202H335.088V97.1422H328.887ZM348.38 97.1872H344.204V108.617H342.467V97.1872H338.282V95.7202H348.38V97.1872ZM369.346 95.7202L365.323 108.617H363.757L360.49 98.7802C360.46 98.6842 360.43 98.5822 360.4 98.4742C360.376 98.3662 360.349 98.2522 360.319 98.1322C360.289 98.2522 360.259 98.3662 360.229 98.4742C360.199 98.5822 360.169 98.6842 360.139 98.7802L356.854 108.617H355.288L351.265 95.7202H352.714C352.87 95.7202 352.999 95.7592 353.101 95.8372C353.209 95.9152 353.278 96.0142 353.308 96.1342L355.972 105.098C356.014 105.26 356.053 105.434 356.089 105.62C356.131 105.806 356.17 106.004 356.206 106.214C356.248 106.004 356.29 105.806 356.332 105.62C356.38 105.428 356.431 105.254 356.485 105.098L359.518 96.1342C359.554 96.0322 359.623 95.9392 359.725 95.8552C359.833 95.7652 359.962 95.7202 360.112 95.7202H360.616C360.772 95.7202 360.898 95.7592 360.994 95.8372C361.09 95.9152 361.162 96.0142 361.21 96.1342L364.234 105.098C364.288 105.254 364.336 105.422 364.378 105.602C364.426 105.782 364.471 105.971 364.513 106.169C364.543 105.971 364.576 105.782 364.612 105.602C364.648 105.422 364.687 105.254 364.729 105.098L367.402 96.1342C367.432 96.0262 367.498 95.9302 367.6 95.8462C367.708 95.7622 367.837 95.7202 367.987 95.7202H369.346ZM379.682 103.829L377.657 98.5822C377.597 98.4262 377.534 98.2462 377.468 98.0422C377.402 97.8322 377.339 97.6102 377.279 97.3762C377.153 97.8622 377.024 98.2672 376.892 98.5912L374.867 103.829H379.682ZM383.318 108.617H381.968C381.812 108.617 381.686 108.578 381.59 108.5C381.494 108.422 381.422 108.323 381.374 108.203L380.168 105.089H374.381L373.175 108.203C373.139 108.311 373.07 108.407 372.968 108.491C372.866 108.575 372.74 108.617 372.59 108.617H371.24L376.397 95.7202H378.161L383.318 108.617ZM390.927 101.966C391.431 101.966 391.875 101.906 392.259 101.786C392.649 101.66 392.973 101.486 393.231 101.264C393.495 101.036 393.693 100.766 393.825 100.454C393.957 100.142 394.023 99.7972 394.023 99.4192C394.023 98.6512 393.771 98.0722 393.267 97.6822C392.763 97.2922 392.007 97.0972 390.999 97.0972H389.091V101.966H390.927ZM396.885 108.617H395.337C395.019 108.617 394.785 108.494 394.635 108.248L391.287 103.64C391.185 103.496 391.074 103.394 390.954 103.334C390.84 103.268 390.66 103.235 390.414 103.235H389.091V108.617H387.354V95.7202H390.999C391.815 95.7202 392.52 95.8042 393.114 95.9722C393.708 96.1342 394.197 96.3712 394.581 96.6832C394.971 96.9952 395.259 97.3732 395.445 97.8172C395.631 98.2552 395.724 98.7472 395.724 99.2932C395.724 99.7492 395.652 100.175 395.508 100.571C395.364 100.967 395.154 101.324 394.878 101.642C394.608 101.954 394.275 102.221 393.879 102.443C393.489 102.665 393.045 102.833 392.547 102.947C392.769 103.073 392.961 103.256 393.123 103.496L396.885 108.617ZM408.936 107.195L408.927 108.617H400.98V95.7202H408.927V97.1422H402.726V101.426H407.748V102.794H402.726V107.195H408.936ZM428.61 107.195L428.601 108.617H420.654V95.7202H428.601V97.1422H422.4V101.426H427.422V102.794H422.4V107.195H428.61ZM443.831 95.7202V108.617H442.958C442.82 108.617 442.703 108.593 442.607 108.545C442.517 108.497 442.427 108.416 442.337 108.302L434.876 98.5822C434.888 98.7322 434.897 98.8792 434.903 99.0232C434.909 99.1672 434.912 99.3022 434.912 99.4282V108.617H433.382V95.7202H434.282C434.36 95.7202 434.426 95.7262 434.48 95.7382C434.534 95.7442 434.582 95.7592 434.624 95.7832C434.666 95.8012 434.708 95.8312 434.75 95.8732C434.792 95.9092 434.837 95.9572 434.885 96.0172L442.346 105.728C442.334 105.572 442.322 105.422 442.31 105.278C442.304 105.128 442.301 104.987 442.301 104.855V95.7202H443.831ZM459.944 102.416V107.366C459.296 107.834 458.603 108.185 457.865 108.419C457.133 108.647 456.329 108.761 455.453 108.761C454.415 108.761 453.479 108.602 452.645 108.284C451.811 107.96 451.097 107.51 450.503 106.934C449.915 106.352 449.462 105.656 449.144 104.846C448.826 104.036 448.667 103.145 448.667 102.173C448.667 101.189 448.82 100.292 449.126 99.4822C449.438 98.6722 449.879 97.9792 450.449 97.4032C451.019 96.8212 451.712 96.3712 452.528 96.0532C453.344 95.7352 454.256 95.5762 455.264 95.5762C455.774 95.5762 456.248 95.6152 456.686 95.6932C457.124 95.7652 457.529 95.8732 457.901 96.0172C458.273 96.1552 458.618 96.3262 458.936 96.5302C459.254 96.7282 459.551 96.9532 459.827 97.2052L459.332 97.9972C459.254 98.1172 459.152 98.1952 459.026 98.2312C458.906 98.2612 458.771 98.2312 458.621 98.1412C458.477 98.0572 458.312 97.9552 458.126 97.8352C457.94 97.7152 457.712 97.6012 457.442 97.4932C457.178 97.3792 456.863 97.2832 456.497 97.2052C456.137 97.1272 455.708 97.0882 455.21 97.0882C454.484 97.0882 453.827 97.2082 453.239 97.4482C452.651 97.6822 452.15 98.0212 451.736 98.4652C451.322 98.9032 451.004 99.4372 450.782 100.067C450.56 100.691 450.449 101.393 450.449 102.173C450.449 102.983 450.563 103.709 450.791 104.351C451.025 104.987 451.355 105.53 451.781 105.98C452.213 106.424 452.735 106.763 453.347 106.997C453.959 107.231 454.646 107.348 455.408 107.348C456.008 107.348 456.539 107.282 457.001 107.15C457.469 107.012 457.925 106.823 458.369 106.583V103.748H456.362C456.248 103.748 456.155 103.715 456.083 103.649C456.017 103.583 455.984 103.502 455.984 103.406V102.416H459.944ZM466.703 108.617H464.957V95.7202H466.703V108.617ZM482.791 95.7202V108.617H481.918C481.78 108.617 481.663 108.593 481.567 108.545C481.477 108.497 481.387 108.416 481.297 108.302L473.836 98.5822C473.848 98.7322 473.857 98.8792 473.863 99.0232C473.869 99.1672 473.872 99.3022 473.872 99.4282V108.617H472.342V95.7202H473.242C473.32 95.7202 473.386 95.7262 473.44 95.7382C473.494 95.7442 473.542 95.7592 473.584 95.7832C473.626 95.8012 473.668 95.8312 473.71 95.8732C473.752 95.9092 473.797 95.9572 473.845 96.0172L481.306 105.728C481.294 105.572 481.282 105.422 481.27 105.278C481.264 105.128 481.261 104.987 481.261 104.855V95.7202H482.791ZM496.384 107.195L496.375 108.617H488.428V95.7202H496.375V97.1422H490.174V101.426H495.196V102.794H490.174V107.195H496.384ZM509.113 107.195L509.104 108.617H501.157V95.7202H509.104V97.1422H502.903V101.426H507.925V102.794H502.903V107.195H509.113ZM517.458 101.966C517.962 101.966 518.406 101.906 518.79 101.786C519.18 101.66 519.504 101.486 519.762 101.264C520.026 101.036 520.224 100.766 520.356 100.454C520.488 100.142 520.554 99.7972 520.554 99.4192C520.554 98.6512 520.302 98.0722 519.798 97.6822C519.294 97.2922 518.538 97.0972 517.53 97.0972H515.622V101.966H517.458ZM523.416 108.617H521.868C521.55 108.617 521.316 108.494 521.166 108.248L517.818 103.64C517.716 103.496 517.605 103.394 517.485 103.334C517.371 103.268 517.191 103.235 516.945 103.235H515.622V108.617H513.885V95.7202H517.53C518.346 95.7202 519.051 95.8042 519.645 95.9722C520.239 96.1342 520.728 96.3712 521.112 96.6832C521.502 96.9952 521.79 97.3732 521.976 97.8172C522.162 98.2552 522.255 98.7472 522.255 99.2932C522.255 99.7492 522.183 100.175 522.039 100.571C521.895 100.967 521.685 101.324 521.409 101.642C521.139 101.954 520.806 102.221 520.41 102.443C520.02 102.665 519.576 102.833 519.078 102.947C519.3 103.073 519.492 103.256 519.654 103.496L523.416 108.617Z" fill="#614385"/>
<path d="M168 105C268.407 97.3375 291.822 98.6146 290.978 100.211L168 105Z" fill="#614385" stroke="#614385"/>
<g filter="url(#filter0_d_735_2)">
<path d="M169.811 121.064C169.447 120.887 169.161 120.623 168.951 120.273C168.74 119.922 168.613 119.584 168.569 119.258C168.586 118.975 168.649 118.754 168.756 118.594C168.851 118.424 168.971 118.287 169.118 118.184C169.263 118.069 169.416 117.983 169.577 117.926C169.737 117.857 169.892 117.8 170.042 117.755L170.31 117.826C170.372 117.881 170.434 117.93 170.496 117.973C170.569 118.016 170.636 118.058 170.698 118.101C170.812 118.047 170.877 117.973 170.895 117.877C170.924 117.782 170.953 117.686 170.982 117.59C171.009 117.459 171.042 117.328 171.081 117.196C171.119 117.065 171.17 116.932 171.232 116.799C171.213 116.695 171.213 116.601 171.231 116.518C171.25 116.434 171.268 116.363 171.288 116.303C171.214 116.249 171.16 116.223 171.125 116.225C171.101 116.215 171.053 116.2 170.981 116.181C170.946 116.183 170.911 116.186 170.876 116.188C170.84 116.178 170.798 116.169 170.751 116.161C170.567 116.043 170.444 115.945 170.38 115.867C170.327 115.776 170.269 115.686 170.204 115.596C170.14 115.506 170.082 115.428 170.031 115.361C169.98 115.293 169.923 115.232 169.861 115.178L169.641 115.051L169.733 114.834C169.755 114.809 169.765 114.779 169.763 114.744C169.76 114.697 169.732 114.634 169.68 114.555C169.636 114.405 169.623 114.294 169.642 114.223L169.663 114.01C169.771 113.851 169.829 113.759 169.84 113.735L170.004 113.548C170.269 113.461 170.539 113.368 170.814 113.268C171.089 113.157 171.358 113.046 171.621 112.935C171.884 112.824 172.153 112.713 172.428 112.602C172.702 112.491 172.978 112.391 173.254 112.303C173.342 112.215 173.439 112.162 173.543 112.144C173.659 112.113 173.763 112.089 173.856 112.071C173.938 112.066 174.013 112.055 174.083 112.039C174.152 112.023 174.203 111.991 174.235 111.942C174.429 111.859 174.619 111.788 174.803 111.729C175.148 111.614 175.603 111.473 176.168 111.308C176.733 111.143 177.37 111.009 178.08 110.905L178.447 110.864C178.518 110.872 178.588 110.873 178.659 110.869C178.728 110.853 178.798 110.842 178.868 110.838C179.476 110.799 179.891 110.961 180.114 111.322C180.235 111.374 180.345 111.443 180.444 111.531C180.543 111.606 180.636 111.683 180.723 111.759C180.785 111.814 180.841 111.864 180.891 111.907C180.94 111.939 180.983 111.966 181.019 111.987L181.168 112.119C181.315 112.391 181.356 112.665 181.291 112.939C181.23 113.084 181.159 113.17 181.078 113.199C180.998 113.227 180.918 113.256 180.837 113.285L180.617 113.422C180.464 113.42 180.347 113.421 180.265 113.427C180.195 113.431 180.113 113.436 180.019 113.442C179.668 113.464 179.261 113.514 178.796 113.59C178.342 113.654 177.878 113.742 177.403 113.854C176.928 113.955 176.466 114.078 176.018 114.224C175.568 114.358 175.178 114.5 174.847 114.65C174.758 114.727 174.639 114.799 174.491 114.867C174.457 114.881 174.406 114.913 174.339 114.964C174.356 115.057 174.362 115.151 174.356 115.245C174.35 115.328 174.337 115.411 174.319 115.494C174.311 115.553 174.304 115.618 174.296 115.689C174.3 115.748 174.298 115.812 174.291 115.883C174.064 116.191 173.969 116.544 174.006 116.941L173.929 117.122C173.885 117.171 173.849 117.244 173.82 117.34C173.802 117.423 173.807 117.511 173.836 117.603L173.92 117.809C174.152 117.771 174.379 117.733 174.6 117.696C174.831 117.646 175.075 117.595 175.33 117.544C175.654 117.464 175.978 117.397 176.303 117.341C176.64 117.273 176.989 117.227 177.351 117.204L178.036 117.161L177.888 117.329L178.082 117.334L177.994 117.621C178.078 117.651 178.139 117.677 178.175 117.698C178.223 117.707 178.265 117.722 178.301 117.743L178.435 117.911C178.496 117.942 178.552 117.997 178.604 118.076C178.656 118.143 178.691 118.241 178.711 118.369L178.669 118.547L177.912 119.652L177.815 119.799L177.637 119.758C177.414 119.76 177.205 119.797 177.009 119.868C176.917 119.897 176.82 119.933 176.717 119.975C176.613 120.005 176.508 120.023 176.403 120.03C176.125 120.094 175.894 120.15 175.709 120.197C175.524 120.232 175.338 120.267 175.152 120.303C174.898 120.366 174.649 120.428 174.407 120.491C174.175 120.541 173.957 120.613 173.751 120.708C173.623 120.728 173.548 120.739 173.524 120.74C173.5 120.73 173.477 120.726 173.453 120.727C173.336 120.735 173.22 120.76 173.106 120.802C172.991 120.845 172.882 120.887 172.779 120.929C172.712 120.991 172.67 121.059 172.651 121.13C172.631 121.19 172.612 121.256 172.593 121.328C172.575 121.411 172.545 121.495 172.503 121.58C172.473 121.652 172.431 121.731 172.377 121.817L172.415 122.132C172.311 122.162 172.26 122.183 172.26 122.194C172.26 122.194 172.254 122.195 172.243 122.195C172.249 122.289 172.237 122.378 172.207 122.462C172.189 122.545 172.17 122.623 172.151 122.694C172.131 122.743 172.116 122.785 172.106 122.821C172.097 122.856 172.093 122.892 172.095 122.927C172.226 123.13 172.27 123.368 172.229 123.641C172.196 123.866 172.121 124.07 172.003 124.254C171.885 124.426 171.741 124.564 171.572 124.669C171.386 124.704 171.245 124.707 171.149 124.678C171.065 124.648 170.975 124.618 170.88 124.589C170.82 124.569 170.76 124.556 170.701 124.548C170.641 124.528 170.581 124.514 170.522 124.506L170.3 124.344C170.261 124.276 170.216 124.214 170.165 124.159C170.114 124.092 170.063 124.024 170.012 123.957C169.948 123.879 169.884 123.801 169.821 123.723C169.757 123.645 169.699 123.554 169.645 123.452C169.537 123.048 169.498 122.71 169.528 122.438C169.569 122.153 169.627 121.874 169.704 121.599C169.721 121.504 169.739 121.415 169.757 121.331C169.776 121.248 169.793 121.159 169.811 121.064ZM182.646 115.107C182.613 114.957 182.577 114.865 182.54 114.832C182.609 114.617 182.654 114.408 182.677 114.207C182.71 113.994 182.733 113.793 182.744 113.604C182.757 113.439 182.771 113.285 182.785 113.144C182.812 113.001 182.844 112.864 182.883 112.732C183.078 112.673 183.219 112.582 183.306 112.459C183.403 112.324 183.478 112.207 183.53 112.11C183.74 112.085 183.876 112.106 183.939 112.172C184.014 112.238 184.097 112.35 184.189 112.509C184.256 112.633 184.347 112.769 184.462 112.914C184.576 113.048 184.741 113.149 184.957 113.217C185 113.344 185.048 113.464 185.103 113.578C185.157 113.692 185.217 113.811 185.284 113.936C185.405 114.175 185.52 114.426 185.631 114.689C185.741 114.941 185.809 115.183 185.836 115.416C185.712 115.694 185.621 116.011 185.561 116.367C185.513 116.722 185.489 117.082 185.489 117.446C185.499 117.798 185.532 118.136 185.588 118.461C185.644 118.787 185.72 119.058 185.816 119.275L185.939 119.549L186.323 119.489C186.737 119.357 187.11 119.216 187.441 119.066C187.771 118.904 188.076 118.721 188.357 118.515C188.637 118.309 188.905 118.081 189.159 117.83C189.412 117.567 189.675 117.263 189.947 116.917C190.206 116.572 190.435 116.187 190.631 115.764C190.826 115.329 190.98 114.885 191.092 114.431C191.216 113.977 191.305 113.526 191.359 113.076C191.413 112.626 191.439 112.208 191.438 111.82C191.653 111.701 191.765 111.524 191.774 111.288L191.707 111.064C191.668 111.007 191.647 110.956 191.644 110.909C191.652 110.85 191.666 110.796 191.687 110.748C191.763 110.473 191.95 110.261 192.246 110.114C192.465 110.241 192.668 110.38 192.853 110.533C193.051 110.685 193.231 110.838 193.393 110.992C193.437 111.306 193.501 111.578 193.586 111.808C193.67 112.025 193.76 112.237 193.855 112.442C193.949 112.636 194.032 112.824 194.102 113.008C194.184 113.19 194.245 113.416 194.286 113.683C194.191 114.041 194.125 114.38 194.086 114.7C194.059 115.007 194.032 115.331 194.007 115.673L193.984 115.869C193.796 116.245 193.61 116.632 193.424 117.031C193.248 117.418 193.106 117.756 192.995 118.045C192.929 118.12 192.87 118.205 192.817 118.303C192.776 118.399 192.736 118.496 192.695 118.592C192.674 118.629 192.642 118.69 192.601 118.774C192.571 118.859 192.539 118.919 192.506 118.957L192.075 118.825L192.005 119.376L191.728 119.464L191.533 119.723C191.294 120.208 191.032 120.618 190.748 120.953C190.476 121.287 190.16 121.589 189.802 121.858C189.455 122.127 189.054 122.387 188.601 122.639C188.158 122.878 187.646 123.139 187.065 123.423C186.829 123.403 186.623 123.398 186.448 123.409C186.283 123.408 186.119 123.406 185.954 123.405C185.791 123.415 185.632 123.42 185.479 123.418C185.327 123.416 185.15 123.409 184.95 123.398C184.896 123.296 184.827 123.224 184.742 123.182C184.658 123.141 184.58 123.122 184.51 123.127C184.269 123.025 184.083 122.872 183.953 122.669C183.822 122.466 183.685 122.24 183.54 121.99C183.472 121.854 183.399 121.718 183.32 121.582C183.253 121.445 183.168 121.315 183.066 121.193L183.411 121.065L182.921 120.568C182.884 120.535 182.841 120.502 182.792 120.47C182.754 120.437 182.717 120.399 182.679 120.354L182.657 120.021C182.55 119.065 182.471 118.183 182.419 117.376C182.379 116.557 182.445 115.831 182.616 115.197L182.646 115.107ZM197.717 122.219C197.668 122.176 197.623 122.126 197.585 122.069C197.545 122.001 197.51 121.916 197.48 121.812C197.304 121.623 197.161 121.403 197.051 121.152C196.941 120.901 196.86 120.642 196.808 120.375C196.755 120.096 196.731 119.816 196.737 119.534C196.743 119.252 196.767 118.986 196.81 118.737C196.838 118.618 196.859 118.493 196.874 118.363C196.919 118.137 196.963 117.917 197.009 117.703C197.053 117.477 197.129 117.29 197.237 117.142C197.182 117.016 197.179 116.876 197.228 116.72C197.277 116.564 197.327 116.42 197.377 116.288C197.398 116.251 197.414 116.221 197.424 116.197C197.433 116.161 197.443 116.131 197.453 116.107C197.568 115.689 197.678 115.288 197.782 114.906C197.898 114.511 198.01 114.134 198.116 113.775C198.309 113.117 198.491 112.471 198.663 111.838C198.845 111.204 199.002 110.531 199.133 109.818C199.223 109.742 199.301 109.69 199.37 109.662C199.393 109.649 199.421 109.635 199.456 109.621C199.49 109.608 199.53 109.599 199.577 109.596C199.831 109.709 200.125 109.814 200.46 109.91C200.806 109.994 201.096 110.028 201.33 110.014L201.645 110.258C201.808 110.424 201.948 110.603 202.066 110.795C202.195 110.974 202.246 111.218 202.218 111.525C202.155 111.635 202.1 111.703 202.055 111.729C202.002 112.002 201.941 112.247 201.872 112.463C201.803 112.667 201.734 112.865 201.664 113.057C201.583 113.274 201.509 113.49 201.44 113.705C201.372 113.921 201.318 114.183 201.279 114.491C201.214 114.577 201.172 114.65 201.152 114.71C201.144 114.769 201.13 114.829 201.11 114.889C201.091 114.96 201.067 115.038 201.037 115.122C201.006 115.195 200.958 115.262 200.891 115.325C200.868 115.691 200.816 115.994 200.738 116.233C200.658 116.461 200.579 116.69 200.499 116.918C200.361 117.337 200.235 117.756 200.121 118.175C200.006 118.581 199.953 119.043 199.962 119.559C200.1 119.515 200.228 119.489 200.344 119.482C200.497 119.472 200.644 119.486 200.787 119.524C201.195 119.287 201.643 119.129 202.131 119.051C202.631 118.973 203.127 118.912 203.617 118.869C204.026 118.843 204.405 118.802 204.754 118.744C204.876 118.819 204.955 118.861 204.991 118.87C205.026 118.868 205.084 118.864 205.166 118.859C205.201 118.857 205.236 118.855 205.272 118.852C205.307 118.85 205.354 118.853 205.413 118.861C205.587 119.014 205.752 119.121 205.909 119.182C206.065 119.231 206.232 119.279 206.411 119.326C206.567 119.375 206.717 119.43 206.862 119.491C207.018 119.54 207.169 119.613 207.316 119.709L207.531 120.594C207.632 120.717 207.679 120.802 207.67 120.849C207.676 120.943 207.658 121.026 207.616 121.099L207.665 121.325C207.446 121.386 207.303 121.448 207.237 121.511C207.169 121.562 207.097 121.631 207.021 121.718C206.893 121.738 206.77 121.752 206.653 121.759C206.42 121.774 206.182 121.824 205.941 121.91C205.582 121.803 205.192 121.764 204.771 121.79C204.607 121.801 204.438 121.817 204.263 121.84C204.1 121.862 203.938 121.89 203.775 121.924C203.601 121.958 203.427 121.993 203.253 122.027C203.079 122.05 202.904 122.067 202.728 122.078C202.589 122.11 202.491 122.134 202.433 122.15C202.376 122.165 202.318 122.186 202.261 122.213C201.872 122.367 201.447 122.523 200.988 122.682C200.54 122.839 200.082 122.933 199.614 122.962C198.924 123.006 198.357 122.866 197.914 122.542C197.861 122.439 197.821 122.371 197.795 122.338C197.77 122.304 197.744 122.265 197.717 122.219ZM211.421 121.351C211.371 121.308 211.327 121.257 211.288 121.201C211.248 121.133 211.213 121.047 211.183 120.944C211.007 120.755 210.864 120.535 210.754 120.284C210.644 120.033 210.563 119.773 210.511 119.507C210.458 119.228 210.435 118.948 210.44 118.666C210.446 118.384 210.47 118.118 210.513 117.869C210.541 117.749 210.562 117.625 210.577 117.495C210.622 117.269 210.667 117.049 210.712 116.834C210.756 116.608 210.832 116.422 210.94 116.274C210.885 116.148 210.882 116.007 210.931 115.852C210.98 115.696 211.03 115.552 211.08 115.42C211.101 115.383 211.117 115.353 211.127 115.329C211.137 115.293 211.146 115.263 211.157 115.239C211.271 114.82 211.381 114.42 211.486 114.038C211.602 113.643 211.713 113.266 211.819 112.907C212.012 112.249 212.194 111.603 212.366 110.97C212.549 110.336 212.706 109.663 212.837 108.95C212.926 108.874 213.005 108.822 213.073 108.794C213.096 108.781 213.124 108.767 213.159 108.753C213.193 108.739 213.234 108.731 213.28 108.728C213.534 108.841 213.828 108.946 214.163 109.042C214.509 109.126 214.799 109.16 215.033 109.145L215.348 109.39C215.511 109.555 215.652 109.734 215.769 109.927C215.898 110.106 215.949 110.35 215.921 110.657C215.858 110.766 215.803 110.834 215.758 110.861C215.705 111.134 215.644 111.379 215.576 111.594C215.506 111.798 215.437 111.997 215.367 112.189C215.286 112.405 215.212 112.621 215.144 112.837C215.075 113.053 215.021 113.315 214.982 113.622C214.917 113.709 214.875 113.782 214.855 113.842C214.847 113.901 214.833 113.961 214.813 114.021C214.795 114.092 214.77 114.17 214.74 114.254C214.71 114.327 214.661 114.394 214.595 114.457C214.571 114.823 214.519 115.125 214.441 115.365C214.361 115.593 214.282 115.821 214.202 116.05C214.064 116.469 213.938 116.888 213.824 117.307C213.709 117.713 213.656 118.174 213.665 118.69C213.803 118.646 213.931 118.621 214.048 118.613C214.2 118.604 214.347 118.618 214.491 118.656C214.898 118.419 215.346 118.261 215.835 118.183C216.334 118.104 216.83 118.044 217.32 118.001C217.729 117.975 218.108 117.933 218.457 117.876C218.579 117.95 218.658 117.992 218.694 118.002C218.729 118 218.788 117.996 218.869 117.991C218.905 117.989 218.94 117.986 218.975 117.984C219.01 117.982 219.057 117.985 219.116 117.993C219.29 118.146 219.456 118.253 219.612 118.314C219.768 118.362 219.935 118.411 220.114 118.458C220.27 118.507 220.42 118.562 220.565 118.623C220.721 118.672 220.872 118.745 221.019 118.841L221.234 119.726C221.336 119.848 221.382 119.933 221.373 119.981C221.379 120.075 221.361 120.158 221.319 120.231L221.368 120.457C221.149 120.518 221.006 120.58 220.94 120.643C220.873 120.694 220.801 120.763 220.724 120.85C220.596 120.87 220.474 120.883 220.357 120.891C220.123 120.906 219.885 120.956 219.644 121.042C219.285 120.935 218.895 120.895 218.474 120.922C218.31 120.932 218.141 120.949 217.966 120.972C217.803 120.994 217.641 121.022 217.478 121.056C217.304 121.09 217.131 121.125 216.957 121.159C216.782 121.182 216.607 121.199 216.431 121.21C216.293 121.242 216.194 121.266 216.137 121.282C216.079 121.297 216.021 121.318 215.964 121.345C215.575 121.499 215.15 121.655 214.691 121.813C214.243 121.971 213.785 122.065 213.317 122.094C212.627 122.138 212.06 121.998 211.617 121.674C211.564 121.571 211.524 121.503 211.499 121.47C211.473 121.436 211.447 121.397 211.421 121.351ZM223.348 113.304C223.372 113.126 223.386 112.984 223.391 112.878C223.396 112.761 223.347 112.64 223.245 112.518C223.28 112.328 223.306 112.179 223.323 112.072C223.351 111.965 223.348 111.818 223.312 111.633C223.398 111.322 223.54 111.055 223.737 110.831C223.946 110.606 224.175 110.416 224.423 110.259C224.671 110.091 224.932 109.951 225.207 109.839C225.481 109.716 225.738 109.612 225.98 109.526C225.977 109.479 225.952 109.458 225.905 109.461C225.858 109.463 225.845 109.435 225.864 109.375C226.488 109.218 227.109 109.008 227.727 108.746C228.356 108.483 228.998 108.243 229.654 108.025C230.309 107.808 230.987 107.659 231.686 107.58C232.385 107.488 233.127 107.529 233.913 107.703C233.969 107.84 234.042 107.97 234.132 108.094C234.222 108.217 234.312 108.341 234.402 108.464C234.503 108.575 234.592 108.687 234.67 108.8C234.747 108.912 234.796 109.032 234.816 109.16C234.964 109.28 235.084 109.413 235.176 109.56C235.278 109.695 235.308 109.886 235.265 110.136C235.142 110.237 235.014 110.339 234.879 110.442C234.745 110.544 234.604 110.641 234.458 110.733C233.923 110.638 233.394 110.624 232.87 110.693C232.346 110.761 231.875 110.832 231.457 110.905C231.319 110.773 231.163 110.718 230.988 110.741C230.813 110.752 230.628 110.793 230.432 110.865C230.248 110.923 230.064 110.988 229.881 111.058C229.697 111.117 229.522 111.139 229.357 111.126C229.236 111.252 229.071 111.344 228.864 111.404C228.656 111.453 228.435 111.496 228.203 111.534C228.195 111.593 228.209 111.634 228.246 111.655C228.282 111.676 228.291 111.722 228.272 111.794C228.361 111.894 228.476 111.963 228.62 112.001C228.762 112.027 228.905 112.053 229.047 112.08C229.202 112.105 229.34 112.149 229.461 112.212C229.582 112.263 229.664 112.358 229.708 112.496C229.919 112.494 230.104 112.541 230.263 112.637C230.421 112.721 230.557 112.829 230.671 112.963C230.785 113.097 230.871 113.244 230.928 113.405C230.984 113.554 231.011 113.693 231.007 113.822C231.062 113.936 231.111 113.98 231.157 113.954C231.214 113.927 231.28 113.952 231.355 114.029C231.413 114.202 231.53 114.382 231.706 114.571C231.894 114.747 232.041 114.943 232.149 115.159C232.194 115.509 232.232 115.823 232.261 116.103C232.303 116.382 232.273 116.66 232.173 116.937C232.007 117.464 231.75 117.944 231.402 118.377C231.053 118.81 230.649 119.2 230.19 119.546C229.741 119.879 229.261 120.18 228.75 120.447C228.238 120.703 227.729 120.923 227.224 121.107C227.177 121.099 227.118 121.102 227.049 121.119C226.991 121.134 226.977 121.1 227.007 121.016C226.908 121.116 226.788 121.182 226.65 121.214C226.522 121.246 226.377 121.261 226.212 121.26C226.06 121.269 225.902 121.273 225.737 121.272C225.585 121.27 225.433 121.286 225.282 121.319C225.183 121.231 225.089 121.143 225.001 121.055C224.925 120.965 224.86 120.858 224.805 120.732C224.746 120.724 224.714 120.691 224.71 120.633C224.718 120.562 224.692 120.528 224.634 120.532C224.631 120.485 224.634 120.45 224.645 120.425C224.655 120.401 224.665 120.377 224.675 120.353C224.72 120.315 224.736 120.29 224.723 120.28C224.722 120.256 224.703 120.24 224.667 120.23C224.642 120.208 224.612 120.187 224.575 120.166C224.55 120.144 224.543 120.115 224.552 120.079C224.604 119.97 224.614 119.846 224.581 119.707C224.56 119.556 224.539 119.405 224.517 119.253C224.496 119.102 224.499 118.961 224.526 118.83C224.552 118.688 224.644 118.564 224.802 118.46C225.284 118.477 225.733 118.425 226.148 118.305C226.575 118.184 226.97 118.029 227.334 117.842C227.71 117.654 228.061 117.455 228.389 117.247C228.727 117.026 229.054 116.823 229.372 116.639C229.399 116.519 229.446 116.417 229.511 116.33C229.587 116.243 229.664 116.162 229.742 116.087C229.818 116 229.889 115.913 229.954 115.827C230.018 115.729 230.064 115.614 230.091 115.483C230.1 115.436 230.097 115.401 230.084 115.378C230.071 115.355 230.052 115.339 230.028 115.329C230.003 115.307 229.979 115.285 229.954 115.263C229.929 115.241 229.915 115.207 229.912 115.16C229.876 115.151 229.84 115.141 229.804 115.132C229.78 115.121 229.757 115.117 229.733 115.118C229.419 114.986 229.09 114.877 228.744 114.794C228.398 114.71 228.104 114.611 227.862 114.497C227.728 114.6 227.589 114.632 227.445 114.594C227.302 114.556 227.13 114.52 226.928 114.486C226.435 114.494 225.964 114.477 225.515 114.435C225.078 114.392 224.65 114.296 224.229 114.146C224.201 114.077 224.168 114.021 224.13 113.976C224.091 113.92 224.008 113.908 223.881 113.939C223.792 113.827 223.698 113.728 223.598 113.64C223.51 113.54 223.426 113.428 223.348 113.304ZM236.066 110.508C236.048 110.415 236.02 110.334 235.98 110.267C235.951 110.186 235.917 110.1 235.876 110.009C235.808 109.872 235.746 109.724 235.689 109.563C235.632 109.402 235.596 109.211 235.582 108.988C235.598 108.87 235.622 108.786 235.654 108.737C235.686 108.676 235.718 108.627 235.751 108.59L235.801 108.27L236.064 108.253C236.158 108.259 236.252 108.259 236.346 108.253C236.451 108.246 236.55 108.24 236.644 108.234C237.088 108.206 237.543 108.16 238.009 108.095C238.475 108.03 238.951 107.959 239.44 107.881C239.973 107.777 240.549 107.687 241.166 107.613C241.217 107.481 241.247 107.397 241.256 107.361C241.277 107.324 241.298 107.282 241.319 107.233L241.505 107.116C241.773 107.087 241.962 107.11 242.073 107.186C242.183 107.249 242.269 107.314 242.332 107.381C242.634 107.338 242.942 107.289 243.256 107.234C243.569 107.167 243.893 107.1 244.23 107.031C244.694 106.943 245.164 106.855 245.639 106.766C246.115 106.677 246.581 106.618 247.037 106.589C247.236 106.577 247.424 106.571 247.6 106.571C247.776 106.572 247.947 106.579 248.112 106.592L248.332 106.736C248.384 106.815 248.448 106.887 248.522 106.953C248.597 107.019 248.683 107.084 248.781 107.148C248.965 107.277 249.146 107.442 249.323 107.642C249.512 107.842 249.596 108.147 249.575 108.56L249.499 108.741C249.455 108.79 249.399 108.841 249.332 108.892L249.171 109.131L248.978 109.144C248.861 109.151 248.774 109.168 248.717 109.195C248.659 109.211 248.591 109.239 248.511 109.279C248.466 109.305 248.415 109.332 248.358 109.359C248.3 109.374 248.237 109.396 248.168 109.424C248.039 109.42 247.939 109.421 247.869 109.425C247.798 109.43 247.717 109.435 247.623 109.441C247.272 109.463 246.894 109.51 246.487 109.583C246.081 109.656 245.687 109.734 245.304 109.817C245.026 109.87 244.759 109.922 244.504 109.973C244.248 110.013 244.016 110.051 243.807 110.088C243.709 110.399 243.621 110.675 243.542 110.915C243.463 111.154 243.379 111.395 243.288 111.635C243.198 111.876 243.114 112.122 243.036 112.373C242.957 112.613 242.886 112.882 242.822 113.18C242.695 113.399 242.591 113.611 242.511 113.816C242.429 114.009 242.367 114.23 242.324 114.479C242.161 114.689 242.046 114.914 241.979 115.153C241.923 115.391 241.872 115.594 241.824 115.762L241.77 116.029C241.693 116.116 241.645 116.184 241.624 116.232C241.616 116.28 241.59 116.334 241.547 116.396C241.521 116.55 241.484 116.699 241.434 116.843C241.414 116.903 241.395 116.969 241.376 117.04C241.357 117.1 241.354 117.148 241.368 117.182C241.352 117.312 241.324 117.414 241.281 117.487C241.286 117.557 241.284 117.627 241.277 117.698C241.27 117.769 241.262 117.84 241.255 117.911C241.237 117.994 241.224 118.072 241.217 118.143C241.209 118.202 241.219 118.26 241.246 118.317C241.284 118.361 241.322 118.406 241.36 118.451C241.398 118.495 241.431 118.552 241.459 118.62C241.484 118.642 241.514 118.658 241.55 118.667C241.586 118.677 241.616 118.693 241.641 118.715C241.74 118.79 241.83 118.832 241.913 118.838L242.102 119.038C242.198 119.454 242.155 119.786 241.971 120.032C241.777 120.315 241.435 120.471 240.944 120.502L240.697 120.5C240.61 120.424 240.56 120.374 240.547 120.351C240.439 120.311 240.348 120.276 240.276 120.245C240.204 120.226 240.137 120.178 240.073 120.1C240.048 120.078 240.018 120.068 239.983 120.07C239.947 120.061 239.917 120.045 239.892 120.023C239.773 119.995 239.677 119.96 239.603 119.918L239.404 119.825C239.408 119.707 239.409 119.625 239.406 119.578C239.304 119.456 239.219 119.32 239.151 119.172C239.095 119.023 239.044 118.867 238.998 118.706C238.955 118.579 238.913 118.465 238.871 118.362C238.841 118.258 238.794 118.167 238.73 118.089C238.655 117.272 238.688 116.583 238.828 116.022C238.968 115.449 239.127 114.893 239.304 114.354C239.403 114.065 239.496 113.772 239.583 113.473C239.669 113.174 239.744 112.87 239.807 112.56L239.987 112.355C240.065 112.28 240.115 112.236 240.137 112.222C240.128 112.07 240.148 111.922 240.197 111.778C240.246 111.623 240.301 111.466 240.361 111.31C240.402 111.213 240.437 111.117 240.466 111.021C240.507 110.925 240.531 110.841 240.539 110.77C240.457 110.775 240.381 110.786 240.312 110.802C240.253 110.806 240.189 110.816 240.12 110.832C239.97 110.877 239.825 110.904 239.685 110.912C239.579 110.919 239.503 110.918 239.455 110.909C239.365 110.962 239.279 110.997 239.198 111.014C239.116 111.019 239.034 111.024 238.952 111.029L238.742 111.043L238.531 111.056C238.391 111.065 238.281 111.089 238.201 111.13C238.037 111.14 237.932 111.147 237.885 111.15C237.839 111.153 237.786 111.156 237.728 111.16L237.517 111.173L237.307 111.186C237.213 111.192 237.107 111.193 236.99 111.189C236.871 111.173 236.745 111.134 236.612 111.072L236.481 110.939C236.402 110.815 236.334 110.749 236.274 110.741L236.078 110.701L236.066 110.508ZM248.097 118.006L248.314 117.816L248.309 117.447C248.556 116.715 248.811 116.012 249.073 115.337C249.347 114.663 249.632 113.969 249.928 113.258C250.019 113.029 250.11 112.8 250.201 112.571C250.304 112.342 250.401 112.106 250.491 111.866C250.477 111.82 250.468 111.773 250.465 111.727C250.461 111.668 250.469 111.603 250.488 111.531C250.637 111.287 250.752 111.068 250.834 110.875C250.927 110.682 251.014 110.482 251.095 110.278C251.186 110.037 251.282 109.796 251.384 109.555C251.498 109.313 251.641 109.075 251.814 108.841L251.926 108.657L252.12 108.663C252.165 108.636 252.211 108.616 252.257 108.601C252.314 108.574 252.384 108.558 252.465 108.553L252.785 108.585C253.159 108.385 253.483 108.113 253.754 107.767C254.037 107.408 254.315 106.985 254.59 106.498L254.781 106.187L255.073 106.344C255.134 106.376 255.23 106.405 255.361 106.432C255.491 106.459 255.629 106.491 255.772 106.529C256.021 106.572 256.265 106.627 256.504 106.694C256.743 106.749 256.93 106.837 257.067 106.958L257.165 107.11C257.196 107.237 257.221 107.353 257.24 107.458C257.27 107.561 257.3 107.665 257.33 107.769C257.392 108.012 257.449 108.255 257.499 108.498C257.549 108.73 257.589 108.991 257.62 109.283C257.693 109.513 257.761 109.75 257.823 109.992C257.896 110.222 257.964 110.453 258.025 110.684C258.105 111.019 258.19 111.343 258.281 111.654C258.37 111.954 258.482 112.24 258.617 112.514C258.734 112.506 258.804 112.508 258.828 112.518C258.965 112.45 259.127 112.405 259.313 112.381L259.54 112.349L259.623 112.555C259.649 112.589 259.681 112.622 259.718 112.655C259.755 112.688 259.798 112.72 259.847 112.753C260.035 112.752 260.172 112.785 260.259 112.85C260.356 112.902 260.436 112.956 260.498 113.011C260.523 113.033 260.554 113.06 260.591 113.093C260.628 113.114 260.658 113.13 260.682 113.14L261.006 113.243L260.851 113.587C260.738 113.841 260.555 114.093 260.3 114.344C260.058 114.595 259.778 114.806 259.46 114.979C259.489 115.059 259.505 115.134 259.509 115.205C259.526 115.274 259.548 115.355 259.578 115.447C259.639 115.678 259.69 115.921 259.73 116.177C259.78 116.42 259.797 116.678 259.779 116.949C259.681 117.26 259.558 117.544 259.41 117.8C259.272 118.044 259.099 118.272 258.889 118.485C258.691 118.685 258.461 118.858 258.2 119.004C257.939 119.138 257.662 119.22 257.37 119.25C257.204 119.226 257.079 119.192 256.994 119.151C256.921 119.109 256.854 119.066 256.792 119.023C256.694 118.959 256.615 118.917 256.555 118.897L256.321 118.806L256.374 118.538C256.403 118.443 256.392 118.361 256.341 118.294C256.302 118.226 256.214 118.138 256.078 118.029C256.029 117.997 255.986 117.964 255.948 117.931C255.91 117.887 255.866 117.843 255.817 117.799L255.44 117.418L256.009 117.223C256.354 117.107 256.58 116.975 256.688 116.828C256.796 116.668 256.826 116.402 256.779 116.029C256.483 115.989 256.243 115.999 256.058 116.057C255.874 116.104 255.689 116.157 255.505 116.216C255.24 116.303 254.981 116.384 254.728 116.459C254.473 116.522 254.194 116.563 253.89 116.582C253.691 116.595 253.48 116.591 253.255 116.57L253.061 116.564L252.996 116.375C252.995 116.351 252.976 116.329 252.939 116.308C252.914 116.274 252.888 116.246 252.863 116.225C252.8 116.158 252.724 116.069 252.635 115.957C252.546 115.845 252.519 115.7 252.555 115.522C252.465 115.399 252.409 115.267 252.389 115.127C252.348 115.224 252.313 115.32 252.284 115.416C252.266 115.499 252.247 115.583 252.229 115.666L252.173 115.898L251.948 115.948C251.926 115.973 251.905 116.009 251.884 116.058C251.875 116.105 251.878 116.14 251.891 116.163L251.973 116.351L251.808 116.52C251.787 116.557 251.759 116.588 251.726 116.614C251.692 116.639 251.664 116.665 251.642 116.689C251.627 116.82 251.6 116.945 251.56 117.065C251.533 117.184 251.499 117.303 251.46 117.423C251.413 117.614 251.366 117.799 251.319 117.978C251.283 118.156 251.271 118.333 251.282 118.509L251.226 118.741C251.174 118.839 251.102 118.914 251.012 118.966C250.933 119.018 250.853 119.064 250.774 119.105C250.66 119.159 250.581 119.211 250.537 119.261L250.499 119.492L250.238 119.544C250.088 119.588 249.978 119.619 249.909 119.635C249.851 119.65 249.782 119.661 249.7 119.666L249.47 119.663C249.321 119.531 249.198 119.433 249.1 119.369C249.013 119.293 248.909 119.229 248.788 119.178L248.674 119.044C248.621 118.953 248.587 118.873 248.571 118.804C248.554 118.723 248.531 118.642 248.502 118.562C248.469 118.411 248.428 118.308 248.377 118.253L248.097 118.006ZM253.405 113.09C253.256 113.335 253.113 113.59 252.978 113.857C253.059 113.84 253.134 113.83 253.205 113.825C253.286 113.82 253.368 113.809 253.449 113.792C253.857 113.743 254.235 113.689 254.584 113.632C254.932 113.575 255.309 113.492 255.713 113.384C255.592 112.958 255.459 112.526 255.314 112.089C255.18 111.639 255.034 111.191 254.876 110.743L254.8 110.924C254.527 111.258 254.268 111.615 254.022 111.994C253.776 112.374 253.576 112.733 253.421 113.072L253.405 113.09ZM265.143 117.067C264.787 116.831 264.486 116.527 264.239 116.156C264.004 115.783 263.809 115.384 263.653 114.96C263.508 114.534 263.398 114.095 263.323 113.642C263.258 113.176 263.218 112.733 263.203 112.311C263.288 111.989 263.399 111.694 263.535 111.427C263.67 111.148 263.823 110.886 263.996 110.64C264.167 110.383 264.346 110.143 264.531 109.92C264.728 109.684 264.918 109.449 265.103 109.214C265.173 109.21 265.239 109.223 265.299 109.254C265.338 109.123 265.401 109.007 265.489 108.908C265.576 108.808 265.671 108.72 265.771 108.643C265.871 108.555 265.972 108.472 266.073 108.395C266.173 108.307 266.255 108.208 266.318 108.098C266.606 108.009 266.857 107.893 267.071 107.751C267.297 107.607 267.51 107.453 267.711 107.287C267.912 107.122 268.119 106.968 268.333 106.825C268.547 106.683 268.798 106.567 269.086 106.478C269.184 106.355 269.307 106.247 269.453 106.155C269.612 106.063 269.765 105.977 269.913 105.897C270.072 105.817 270.219 105.731 270.354 105.64C270.501 105.549 270.617 105.43 270.702 105.284C270.778 105.373 270.879 105.402 271.007 105.37C271.133 105.327 271.248 105.284 271.351 105.243C271.42 105.227 271.479 105.235 271.528 105.267C271.577 105.299 271.621 105.337 271.659 105.382C271.708 105.414 271.745 105.435 271.769 105.445C271.804 105.455 271.837 105.417 271.867 105.333C271.962 105.339 271.988 105.378 271.945 105.452C271.915 105.524 271.894 105.572 271.884 105.596C271.999 105.566 272.094 105.583 272.169 105.649C272.255 105.702 272.38 105.735 272.545 105.748C272.607 105.803 272.628 105.849 272.607 105.885C272.586 105.922 272.572 105.981 272.565 106.064C272.994 106.166 273.276 106.354 273.411 106.627C273.545 106.888 273.575 107.174 273.501 107.484C273.426 107.783 273.268 108.069 273.027 108.342C272.797 108.603 272.532 108.784 272.233 108.886C271.877 109.002 271.543 109.117 271.233 109.231C270.935 109.344 270.644 109.468 270.359 109.603C270.086 109.738 269.825 109.895 269.578 110.075C269.343 110.243 269.138 110.438 268.964 110.66C268.642 110.775 268.352 110.922 268.094 111.103C267.847 111.283 267.613 111.48 267.391 111.693C267.182 111.906 266.979 112.131 266.782 112.366C266.585 112.59 266.388 112.814 266.191 113.038C266.203 113.236 266.178 113.391 266.114 113.5C266.051 113.61 265.981 113.72 265.906 113.831C265.944 114.051 266.003 114.241 266.083 114.401C266.175 114.548 266.267 114.7 266.359 114.859C267.312 115.08 268.312 115.193 269.357 115.197C270.413 115.189 271.456 115.158 272.486 115.105C272.6 115.238 272.726 115.365 272.863 115.486C273.01 115.594 273.141 115.709 273.254 115.831C273.38 115.952 273.477 116.099 273.547 116.27C273.627 116.43 273.657 116.627 273.637 116.864C273.451 117.075 273.247 117.282 273.025 117.484C272.802 117.674 272.579 117.864 272.356 118.054C272.252 118.073 272.123 118.081 271.97 118.079C271.829 118.076 271.677 118.08 271.513 118.09C271.361 118.1 271.204 118.121 271.042 118.155C270.89 118.177 270.746 118.221 270.61 118.288C269.871 118.312 269.111 118.272 268.33 118.169C267.548 118.054 266.822 117.906 266.153 117.725C266.015 117.581 265.871 117.449 265.723 117.33C265.574 117.198 265.38 117.111 265.143 117.067ZM277.072 114.62C277.081 114.573 277.085 114.537 277.083 114.514C277.094 114.49 277.074 114.462 277.025 114.43C276.997 114.349 277.011 114.295 277.068 114.268C277.125 114.241 277.182 114.214 277.239 114.187C277.253 113.482 277.329 112.837 277.468 112.253C277.619 111.656 277.781 111.076 277.957 110.513C278.144 109.949 278.326 109.386 278.502 108.823C278.688 108.248 278.831 107.628 278.93 106.964C279.072 106.802 279.184 106.613 279.264 106.397C279.356 106.18 279.442 105.963 279.522 105.747C279.613 105.518 279.717 105.3 279.833 105.093C279.961 104.885 280.137 104.709 280.363 104.566C280.469 104.571 280.564 104.588 280.648 104.618C280.743 104.636 280.833 104.66 280.917 104.689C281.001 104.719 281.091 104.743 281.186 104.76C281.281 104.778 281.381 104.783 281.486 104.777C281.537 104.832 281.582 104.9 281.622 104.979C281.662 105.047 281.713 105.109 281.775 105.163L282.087 105.091C282.248 105.21 282.392 105.365 282.522 105.556C282.651 105.736 282.745 105.93 282.805 106.137C282.865 106.333 282.871 106.532 282.826 106.735C282.779 106.926 282.654 107.08 282.45 107.199C282.466 107.269 282.469 107.321 282.46 107.357C282.45 107.393 282.435 107.429 282.414 107.466C282.404 107.49 282.4 107.519 282.402 107.554C282.403 107.578 282.429 107.611 282.479 107.655C282.357 107.769 282.248 107.911 282.153 108.081C282.058 108.24 281.981 108.409 281.921 108.589C281.862 108.769 281.815 108.948 281.779 109.126C281.755 109.304 281.742 109.469 281.74 109.622C282.057 109.249 282.434 108.897 282.871 108.564C283.308 108.231 283.687 107.919 284.009 107.629C284.267 107.425 284.489 107.234 284.678 107.058C284.877 106.869 285.078 106.698 285.279 106.544C285.48 106.379 285.688 106.225 285.902 106.082C286.127 105.927 286.351 105.76 286.575 105.582C286.689 105.527 286.776 105.51 286.836 105.53C286.907 105.549 286.973 105.574 287.034 105.605C287.041 105.523 287.02 105.477 286.973 105.468C286.924 105.448 286.903 105.39 286.909 105.296C287.104 105.225 287.275 105.144 287.422 105.052C287.58 104.96 287.745 104.873 287.916 104.792C288.041 104.913 288.167 105.046 288.294 105.191C288.419 105.324 288.582 105.39 288.782 105.389C288.862 105.536 288.951 105.648 289.05 105.724C289.159 105.788 289.263 105.852 289.361 105.916C289.471 105.979 289.564 106.061 289.641 106.162C289.717 106.251 289.768 106.401 289.793 106.611C289.752 106.707 289.7 106.816 289.637 106.937C289.585 107.046 289.541 107.184 289.505 107.351C289.24 107.626 288.968 107.872 288.689 108.09C288.42 108.295 288.139 108.494 287.846 108.689C287.565 108.883 287.272 109.083 286.968 109.291C286.676 109.497 286.38 109.733 286.079 109.999C286.016 110.108 285.934 110.207 285.834 110.296C285.734 110.385 285.628 110.473 285.516 110.563C285.416 110.64 285.315 110.722 285.215 110.811C285.127 110.899 285.057 111.003 285.006 111.123C284.959 111.126 284.919 111.135 284.884 111.149C284.849 111.151 284.809 111.159 284.762 111.174C284.722 111.271 284.656 111.351 284.566 111.415C284.488 111.479 284.435 111.559 284.405 111.655C284.645 112.097 284.942 112.425 285.296 112.637C285.65 112.85 286.04 112.995 286.468 113.074C286.896 113.153 287.356 113.182 287.848 113.163C288.339 113.143 288.849 113.117 289.375 113.084C289.433 113.068 289.454 113.037 289.439 112.991C289.436 112.933 289.469 112.907 289.54 112.915C289.719 112.962 289.87 113.023 289.992 113.097C290.114 113.172 290.231 113.252 290.342 113.339C290.453 113.426 290.559 113.519 290.659 113.619C290.771 113.706 290.894 113.798 291.029 113.895C291.041 114.446 290.905 114.906 290.623 115.277C290.353 115.634 289.978 115.934 289.5 116.176C288.823 116.242 288.232 116.262 287.725 116.235C287.219 116.209 286.713 116.111 286.21 115.944C286.174 115.934 286.136 115.901 286.098 115.845C286.071 115.788 286.045 115.749 286.02 115.727C285.922 115.674 285.816 115.657 285.699 115.677C285.583 115.696 285.483 115.69 285.399 115.66C285.291 115.62 285.109 115.526 284.853 115.378C284.608 115.229 284.382 115.091 284.175 114.963C283.917 114.78 283.665 114.602 283.419 114.43C283.184 114.245 282.971 114.041 282.781 113.818C282.742 113.762 282.688 113.736 282.618 113.741C282.559 113.744 282.5 113.73 282.439 113.699C282.046 113.982 281.721 114.326 281.465 114.73C281.22 115.121 280.981 115.523 280.749 115.937C280.516 116.34 280.265 116.725 279.995 117.095C279.735 117.452 279.395 117.738 278.974 117.952C278.846 117.96 278.733 117.944 278.637 117.903C278.541 117.874 278.45 117.827 278.363 117.762C278.278 117.709 278.192 117.655 278.107 117.602C278.021 117.549 277.925 117.514 277.818 117.497C277.808 117.333 277.763 117.183 277.684 117.047C277.616 116.899 277.543 116.769 277.466 116.656C277.399 116.531 277.344 116.411 277.302 116.297C277.271 116.181 277.299 116.062 277.385 115.939C277.25 115.842 277.121 115.762 277 115.699C277.077 115.612 277.107 115.534 277.091 115.465C277.086 115.394 277.064 115.325 277.025 115.257C276.985 115.19 276.952 115.121 276.924 115.052C276.907 114.971 276.925 114.882 276.977 114.785C277.023 114.77 277.039 114.746 277.025 114.711C277.023 114.676 277.039 114.646 277.072 114.62Z" fill="#614385"/>
</g>
<path d="M175.478 81.6172V36.8172H185.91L204.47 67.2812H198.966L217.014 36.8172H227.446L227.574 81.6172H215.926L215.798 54.5452H217.782L204.278 77.2012H198.646L184.758 54.5452H187.19V81.6172H175.478ZM246.333 82.5132C243.047 82.5132 240.061 81.9585 237.373 80.8492C234.727 79.6972 232.53 78.0545 230.781 75.9212L237.693 67.7292C238.887 69.2652 240.125 70.4385 241.405 71.2492C242.685 72.0172 244.029 72.4012 245.437 72.4012C249.191 72.4012 251.069 70.2252 251.069 65.8732V46.6092H235.581V36.8172H263.613V65.1052C263.613 70.9505 262.141 75.3239 259.197 78.2252C256.253 81.0839 251.965 82.5132 246.333 82.5132ZM290.791 81.6172V36.8172H301.223L319.783 67.2812H314.279L332.327 36.8172H342.759L342.887 81.6172H331.239L331.111 54.5452H333.095L319.591 77.2012H313.959L300.071 54.5452H302.503V81.6172H290.791ZM363.501 54.1612H384.301V63.6332H363.501V54.1612ZM364.397 71.8252H387.821V81.6172H351.853V36.8172H386.989V46.6092H364.397V71.8252ZM405.806 81.6172V62.6732L408.75 70.2892L388.718 36.8172H402.094L416.558 61.0732H408.814L423.342 36.8172H435.63L415.662 70.2892L418.478 62.6732V81.6172H405.806ZM450.314 54.1612H471.114V63.6332H450.314V54.1612ZM451.21 71.8252H474.634V81.6172H438.666V36.8172H473.802V46.6092H451.21V71.8252ZM481.666 81.6172V36.8172H502.146C506.242 36.8172 509.762 37.4785 512.706 38.8012C515.692 40.1239 517.996 42.0439 519.618 44.5612C521.239 47.0359 522.05 49.9799 522.05 53.3932C522.05 56.7639 521.239 59.6865 519.618 62.1612C517.996 64.5932 515.692 66.4705 512.706 67.7932C509.762 69.0732 506.242 69.7132 502.146 69.7132H488.706L494.338 64.4012V81.6172H481.666ZM509.378 81.6172L498.242 65.2972H511.746L522.946 81.6172H509.378ZM494.338 65.7452L488.706 59.9212H501.378C504.023 59.9212 505.986 59.3452 507.266 58.1932C508.588 57.0412 509.25 55.4412 509.25 53.3932C509.25 51.3025 508.588 49.6812 507.266 48.5292C505.986 47.3772 504.023 46.8012 501.378 46.8012H488.706L494.338 40.9772V65.7452Z" fill="#614385"/>
<defs>
<filter id="filter0_d_735_2" x="166.079" y="99.7725" width="127.167" height="25.292" filterUnits="userSpaceOnUse" color-interpolation-filters="sRGB">
<feFlood flood-opacity="0" result="BackgroundImageFix"/>
<feColorMatrix in="SourceAlpha" type="matrix" values="0 0 0 0 0 0 0 0 0 0 0 0 0 0 0 0 0 0 127 0" result="hardAlpha"/>
<feOffset dy="-2"/>
<feGaussianBlur stdDeviation="1"/>
<feComposite in2="hardAlpha" operator="out"/>
<feColorMatrix type="matrix" values="0 0 0 0 0 0 0 0 0 0 0 0 0 0 0 0 0 0 0.15 0"/>
<feBlend mode="normal" in2="BackgroundImageFix" result="effect1_dropShadow_735_2"/>
<feBlend mode="normal" in="SourceGraphic" in2="effect1_dropShadow_735_2" result="shape"/>
</filter>
</defs>
</svg>
